<svg xmlns="http://www.w3.org/2000/svg" aria-hidden="true" style="position:absolute;width:0;height:0;overflow:hidden">
    <defs>
        <!-- <symbol id="icon-menu" viewBox="0 0 27 24">
            <path d="M0.899 3.001c0-0.477 0.19-0.935 0.527-1.273s0.795-0.527 1.273-0.527h21.6c0.477 0 0.935 0.19 1.273 0.527s0.527 0.795 0.527 1.273-0.19 0.935-0.527 1.273c-0.337 0.338-0.795 0.527-1.273 0.527h-21.6c-0.477 0-0.935-0.19-1.273-0.527s-0.527-0.795-0.527-1.273z"></path>
            <path d="M0.899 12.001c0-0.477 0.19-0.935 0.527-1.273s0.795-0.527 1.273-0.527h21.6c0.477 0 0.935 0.19 1.273 0.527s0.527 0.795 0.527 1.273-0.19 0.935-0.527 1.273c-0.337 0.338-0.795 0.527-1.273 0.527h-21.6c-0.477 0-0.935-0.19-1.273-0.527s-0.527-0.795-0.527-1.273z"></path>
            <path d="M0.899 21.001c0-0.477 0.19-0.935 0.527-1.273s0.795-0.527 1.273-0.527h21.6c0.477 0 0.935 0.19 1.273 0.527s0.527 0.795 0.527 1.273c0 0.477-0.19 0.935-0.527 1.273s-0.795 0.527-1.273 0.527h-21.6c-0.477 0-0.935-0.19-1.273-0.527s-0.527-0.795-0.527-1.273z"></path>
        </symbol> -->
        <symbol id="icon-envelope" viewBox="0 0 40 40">
            <path d="M36 4c2.209 0 4 1.791 4 4v0 24c0 2.209-1.791 4-4 4v0h-32c-2.209 0-4-1.791-4-4v0-24c0-2.2 1.8-4 4-4h32zM27.26 22.2l12.74 9.8v-4l-10.24-7.8 10.24-8.2v-4l-20 16-20-16v4l10.24 8.2-10.24 7.8v4l12.74-9.8 7.26 5.8 7.26-5.8z"></path>
        </symbol>
        <symbol id="icon-phone" viewBox="0 0 40 40">
            <path d="M40 36.7v1.3c0 1.105-0.895 2-2 2v0h-4c-18.778 0-34-15.222-34-34v0-4c0-1.105 0.895-2 2-2v0h8c1.105 0 2 0.895 2 2v0 8c0 1.12-0.62 2.62-1.4 3.4l-4.28 4.28c3.040 7.2 8.8 12.96 16 16l4.24-4.24c0.8-0.8 2.3-1.42 3.4-1.42h8.040c1.096 0.011 1.98 0.902 1.98 2 0 0 0 0 0 0v0 6.7z"></path>
        </symbol>
        <symbol id="icon-plugin" viewBox="0 0 40 40">
            <path d="M40 28v8c0 2.209-1.791 4-4 4v0h-8v-4c0-2.209-1.791-4-4-4v0c-2.209 0-4 1.791-4 4v0 4h-8c-2.209 0-4-1.791-4-4v0-8h-4c-2.209 0-4-1.791-4-4v0c0-2.209 1.791-4 4-4v0h4v-8c0-2.2 1.8-4 4-4h8v-4c0-2.209 1.791-4 4-4v0c2.209 0 4 1.791 4 4v0 4h8c2.209 0 4 1.791 4 4v0 8h-4c-2.209 0-4 1.791-4 4v0c0 2.209 1.791 4 4 4v0h4z"></path>
        </symbol>
        <!-- <symbol id="icon-tuning" viewBox="0 0 40 40">
            <path d="M34 32v8h-4v-8h-4v-6h12v6h-4zM2 18h12v6h-12v-6zM14 10h12v6h-12v-6zM6 0h4v16h-4v-16zM30 0h4v24h-4v-24zM18 0h4v8h-4v-8zM6 24h4v16h-4v-16zM18 16h4v24h-4v-24z"></path>
        </symbol> -->
        <symbol id="icon-target" viewBox="0 0 40 40">
            <path d="M35.88 22h-9.88v-4h9.88c-0.938-7.257-6.623-12.942-13.8-13.872l-0.080-0.008v9.88h-4v-9.88c-7.257 0.938-12.942 6.623-13.872 13.8l-0.008 0.080h9.88v4h-9.88c0.938 7.257 6.623 12.942 13.8 13.872l0.080 0.008v-9.88h4v9.88c7.257-0.938 12.942-6.623 13.872-13.8l0.008-0.080zM20 40c-11.046 0-20-8.954-20-20s8.954-20 20-20v0c11.046 0 20 8.954 20 20s-8.954 20-20 20v0z"></path>
        </symbol>
        <symbol id="icon-portfolio" viewBox="0 0 40 40">
            <path d="M18 24h-16v12c0 2.209 1.791 4 4 4v0h28c2.209 0 4-1.791 4-4v0-12h-16v4h-4v-4zM18 22h-18v-12c0-2.2 1.8-4 4-4h8v-2c0-2.209 1.791-4 4-4v0h8c2.209 0 4 1.791 4 4v0 2h8c2.209 0 4 1.791 4 4v0 12h-18v-4h-4v4zM24 6v-2h-8v2h8z"></path>
        </symbol>
        <symbol id="icon-time" viewBox="0 0 40 40">
            <path d="M20 40c-11.046 0-20-8.954-20-20s8.954-20 20-20v0c11.046 0 20 8.954 20 20s-8.954 20-20 20v0zM20 36c8.837 0 16-7.163 16-16s-7.163-16-16-16v0c-8.837 0-16 7.163-16 16s7.163 16 16 16v0zM18 20.82v-12.82h4v11.18l7.9 7.9-2.82 2.82-9.080-9.080z"></path>
        </symbol>
        <symbol id="icon-user-group" viewBox="0 0 40 40">
            <path d="M14 16c-4.418 0-8-3.582-8-8s3.582-8 8-8v0c4.418 0 8 3.582 8 8s-3.582 8-8 8v0zM14 18c4.3 0 8.4 0.8 12.2 2.18l-2.2 11.82h-2.5l-1.5 8h-12l-1.5-8h-2.5l-2.2-11.82c3.626-1.368 7.818-2.166 12.194-2.18h0.006zM30.62 18.34c2.64 0.36 5.18 0.96 7.6 1.84l-2.22 11.82h-2.5l-1.5 8h-7.92l0.74-4h2.5l3.3-17.66zM26 0c0.020-0 0.044-0 0.069-0 4.418 0 8 3.582 8 8s-3.582 8-8 8c-0.979 0-1.917-0.176-2.784-0.498l0.055 0.018c1.663-2.033 2.671-4.659 2.671-7.52s-1.008-5.487-2.688-7.541l0.017 0.021c0.86-0.28 1.72-0.48 2.66-0.48z"></path>
        </symbol>
        <symbol id="icon-center_focus_weak" viewBox="0 0 24 24">
            <path d="M12 14.016q0.797 0 1.406-0.609t0.609-1.406-0.609-1.406-1.406-0.609-1.406 0.609-0.609 1.406 0.609 1.406 1.406 0.609zM12 8.016q1.641 0 2.813 1.172t1.172 2.813-1.172 2.813-2.813 1.172-2.813-1.172-1.172-2.813 1.172-2.813 2.813-1.172zM18.984 18.984v-3.984h2.016v3.984q0 0.797-0.609 1.406t-1.406 0.609h-3.984v-2.016h3.984zM18.984 3q0.797 0 1.406 0.609t0.609 1.406v3.984h-2.016v-3.984h-3.984v-2.016h3.984zM5.016 5.016v3.984h-2.016v-3.984q0-0.797 0.609-1.406t1.406-0.609h3.984v2.016h-3.984zM5.016 15v3.984h3.984v2.016h-3.984q-0.797 0-1.406-0.609t-0.609-1.406v-3.984h2.016z"></path>
        </symbol>
        <symbol id="icon-map" viewBox="0 0 40 40">
            <path d="M0 0l12 8 16-8 12 8v32l-12-8-16 8-12-8v-32zM14 12v22l12-6v-22l-12 6z"></path>
        </symbol>
        <symbol id="icon-globe" viewBox="0 0 40 40">
            <path d="M20 40c-11.046 0-20-8.954-20-20s8.954-20 20-20v0c11.046 0 20 8.954 20 20s-8.954 20-20 20v0zM24 35.5c3.204-0.848 5.928-2.574 7.985-4.903l0.015-0.017v-12.58c-2.209 0-4-1.791-4-4v0-7.86c-1.728-1.012-3.757-1.719-5.922-1.992l-0.078-0.008v1.86c0 2.209-1.791 4-4 4v0 2c0 2.209-1.791 4-4 4v0 4h6c2.209 0 4 1.791 4 4v0 11.5zM16 35.5v-5.5c-2.209 0-4-1.791-4-4v0-2h-1c-1.657 0-3-1.343-3-3v0-5h-3.5c-0.321 1.198-0.505 2.573-0.505 3.991 0 7.421 5.046 13.663 11.893 15.483l0.112 0.025z"></path>
        </symbol>
        <symbol id="icon-user-tie" viewBox="0 0 32 32">
            <path d="M10 6c0-3.314 2.686-6 6-6s6 2.686 6 6c0 3.314-2.686 6-6 6s-6-2.686-6-6zM24.002 14h-1.107l-6.222 12.633 2.327-11.633-3-3-3 3 2.327 11.633-6.222-12.633h-1.107c-3.998 0-3.998 2.687-3.998 6v10h24v-10c0-3.313 0-6-3.998-6z"></path>
        </symbol>
        <symbol id="icon-instagram" viewBox="0 0 32 32">
            <path d="M31.969 9.408c-.075-1.7-.35-2.869-.744-3.882a7.803 7.803 0 0 0-1.85-2.838A7.867 7.867 0 0 0 26.543.844C25.524.45 24.361.175 22.661.1 20.948.019 20.404 0 16.06 0s-4.888.019-6.595.094c-1.7.075-2.869.35-3.882.744a7.803 7.803 0 0 0-2.838 1.85A7.867 7.867 0 0 0 .901 5.52C.507 6.539.232 7.702.157 9.402c-.081 1.713-.1 2.257-.1 6.601s.019 4.888.094 6.595c.075 1.7.35 2.869.744 3.882a7.895 7.895 0 0 0 1.85 2.838 7.867 7.867 0 0 0 2.832 1.844c1.019.394 2.182.669 3.882.744 1.706.075 2.25.094 6.595.094s4.888-.019 6.595-.094c1.7-.075 2.869-.35 3.882-.744a8.181 8.181 0 0 0 4.682-4.682c.394-1.019.669-2.182.744-3.882.075-1.707.094-2.25.094-6.595s-.006-4.888-.081-6.595zm-2.882 13.065c-.069 1.563-.331 2.407-.55 2.969a5.31 5.31 0 0 1-3.038 3.038c-.563.219-1.413.481-2.969.55-1.688.075-2.194.094-6.464.094s-4.782-.019-6.464-.094c-1.563-.069-2.407-.331-2.969-.55a4.926 4.926 0 0 1-1.838-1.194 4.974 4.974 0 0 1-1.194-1.838c-.219-.563-.481-1.413-.55-2.969-.075-1.688-.094-2.194-.094-6.464s.019-4.782.094-6.464c.069-1.563.331-2.407.55-2.969a4.868 4.868 0 0 1 1.2-1.838A4.974 4.974 0 0 1 6.639 3.55c.563-.219 1.413-.481 2.969-.55 1.688-.075 2.194-.094 6.464-.094 4.276 0 4.782.019 6.464.094 1.563.069 2.407.331 2.969.55a4.914 4.914 0 0 1 1.838 1.194 4.974 4.974 0 0 1 1.194 1.838c.219.563.481 1.413.55 2.969.075 1.688.094 2.194.094 6.464s-.019 4.77-.094 6.458z"/>
            <path d="M16.059 7.783c-4.538 0-8.22 3.682-8.22 8.22s3.682 8.22 8.22 8.22 8.22-3.682 8.22-8.22-3.682-8.22-8.22-8.22zm0 13.552a5.333 5.333 0 0 1 0-10.664 5.333 5.333 0 0 1 0 10.664zM26.524 7.458a1.919 1.919 0 1 1-3.838 0 1.919 1.919 0 0 1 3.838 0z"/>
        </symbol>
        <symbol id="icon-twitter" viewBox="0 0 32 32">
            <path d="M32 6.078c-1.19.522-2.458.868-3.78 1.036a6.523 6.523 0 0 0 2.886-3.626 13.11 13.11 0 0 1-4.16 1.588A6.574 6.574 0 0 0 22.154 3c-3.632 0-6.556 2.948-6.556 6.562 0 .52.044 1.02.152 1.496-5.454-.266-10.28-2.88-13.522-6.862a6.605 6.605 0 0 0-.898 3.316 6.57 6.57 0 0 0 2.914 5.452 6.479 6.479 0 0 1-2.964-.808v.072c0 3.188 2.274 5.836 5.256 6.446a6.548 6.548 0 0 1-1.72.216 5.8 5.8 0 0 1-1.242-.112c.85 2.598 3.262 4.508 6.13 4.57a13.182 13.182 0 0 1-8.134 2.798c-.538 0-1.054-.024-1.57-.09A18.469 18.469 0 0 0 10.064 29c12.072 0 18.672-10 18.672-18.668 0-.29-.01-.57-.024-.848A13.087 13.087 0 0 0 32 6.078z"/>
        </symbol>
        <symbol id="icon-facebook" viewBox="0 0 32 32">
            <path d="M21.329 5.313h2.921V.225C23.746.156 22.013 0 19.994 0c-4.212 0-7.097 2.649-7.097 7.519V12H8.249v5.688h4.648V32h5.699V17.689h4.46l.708-5.688h-5.169V8.082c.001-1.644.444-2.769 2.735-2.769z"/>
        </symbol>
        <symbol id="icon-linkedin" viewBox="0 0 32 32">
            <path d="M31.992 32v-.001H32V20.263c0-5.741-1.236-10.164-7.948-10.164-3.227 0-5.392 1.771-6.276 3.449h-.093v-2.913h-6.364v21.364h6.627V21.42c0-2.785.528-5.479 3.977-5.479 3.399 0 3.449 3.179 3.449 5.657v10.401h6.62zM.528 10.636h6.635V32H.528V10.636zM3.843 0C1.722 0 0 1.721 0 3.843s1.721 3.879 3.843 3.879c2.121 0 3.843-1.757 3.843-3.879A3.846 3.846 0 0 0 3.843 0z"/>
        </symbol>
        <symbol id="icon-location" viewBox="0 0 40 40">
            <path d="M20 40s-14-18.26-14-26c0-7.732 6.268-14 14-14s14 6.268 14 14v0c0 7.74-14 26-14 26zM20 18c2.209 0 4-1.791 4-4s-1.791-4-4-4v0c-2.209 0-4 1.791-4 4s1.791 4 4 4v0z"></path>
        </symbol>
        <symbol id="icon-close" viewBox="0 0 32 32">
            <path d="M32 3.223 28.777 0 16 12.777 3.223 0 0 3.223 12.777 16 0 28.777 3.223 32 16 19.223 28.777 32 32 28.777 19.223 16 32 3.223z"/>
        </symbol>
        <symbol id="icon-user" viewBox="0 0 40 40">
            <path d="M10 10c0-5.523 4.477-10 10-10s10 4.477 10 10v0 4c0 5.523-4.477 10-10 10s-10-4.477-10-10v0-4zM0 33.36c5.72-3.37 12.602-5.36 19.948-5.36 0.018 0 0.036 0 0.055 0h-0.003c7.28 0 14.12 1.94 20 5.36v6.64h-40v-6.64z"></path>
        </symbol>
        <symbol id="icon-checkmark" viewBox="0 0 40 40">
            <path d="M0 22l4-4 10 10 22-22 4 4-26 26z"></path>
        </symbol>
        <symbol id="icon-send" viewBox="0 0 40 40">
            <path d="M0 0l40 20-40 20v-40zM0 16v8l20-4-20-4z"></path>
        </symbol>
    </defs>
</svg>