<svg width="32" height="39" viewBox="0 0 32 39" fill="none" xmlns="http://www.w3.org/2000/svg">
    <g clip-path="url(#clip0_139_902)">
        <path d="M1.49436e-07 15.6608C0.0245868 15.3594 0.0298782 15.0882 0.0829798 14.8266C0.105125 14.7174 0.22082 14.5515 0.307918 14.5424C1.28469 14.4403 2.25346 14.4321 3.23757 14.5851C5.06212 14.8689 6.72985 15.5526 8.33542 16.4039C9.52138 17.0327 10.6349 17.7785 11.6534 18.659C12.9422 19.773 14.117 20.9885 15.0102 22.4401C15.4012 23.0755 15.7013 23.7657 16.0254 24.3973C16.1941 24.0022 16.3335 23.4997 16.6039 23.08C17.1347 22.256 17.7059 21.4524 18.3224 20.6895C18.8008 20.0974 19.3304 19.5294 19.9143 19.0412C20.799 18.3016 21.7129 17.5826 22.6835 16.9608C23.8889 16.1885 25.1962 15.5826 26.557 15.1203C28.0096 14.6268 29.5066 14.3614 31.0521 14.459C31.2681 14.4726 31.4893 14.4836 31.6952 14.5412C31.7893 14.5675 31.9109 14.6991 31.919 14.7917C31.9642 15.3072 32.0124 15.8264 31.9971 16.3425C31.9371 18.3696 31.6727 20.3641 30.8729 22.2522C30.4009 23.3665 29.7822 24.3981 28.9763 25.3113C28.554 25.7899 28.1652 26.3097 27.684 26.7224C26.6792 27.5838 25.6338 28.4001 24.5851 29.2094C23.5209 30.0307 22.424 30.8103 21.3588 31.6304C20.8927 31.9892 20.4479 32.3818 20.0314 32.7965C18.7628 34.0596 17.9195 35.5922 17.2596 37.2305C17.1025 37.6204 17.0092 38.0356 16.8864 38.4695C16.3193 38.4997 15.7524 38.4997 15.151 38.4695C14.9221 37.8879 14.7443 37.3301 14.5303 36.7862C13.9798 35.3871 13.2256 34.0992 12.1785 33.0132C11.5117 32.3217 10.7813 31.6798 10.0204 31.0906C8.59184 29.9846 7.12712 28.924 5.66475 27.8616C4.55482 27.0553 3.5874 26.1005 2.75477 25.0286C1.81223 23.8152 1.09271 22.468 0.668383 20.9827C0.314749 19.7449 0.079818 18.4882 0.0705905 17.1961C0.0696368 17.0626 0.0245883 16.9293 0 16.7959C1.47478e-07 16.4289 1.49436e-07 16.0619 1.49436e-07 15.6608ZM27.3254 18.1113C26.3342 18.3305 25.4082 18.7106 24.5291 19.2111C22.7187 20.2415 21.1977 21.5997 20.0375 23.3109C19.5076 24.0926 19.0699 24.9642 18.7537 25.8522C18.3884 26.8778 18.1977 27.965 17.9421 29.028C17.8235 29.5213 17.7306 30.0206 17.6261 30.5172C17.6567 30.5395 17.6874 30.5617 17.718 30.5839C18.0847 30.3061 18.4473 30.0228 18.8188 29.7513C20.4864 28.5327 22.1618 27.3243 23.8241 26.0986C24.9941 25.2359 25.9372 24.1596 26.7743 22.981C27.5853 21.839 28.0982 20.5657 28.5127 19.2479C28.6406 18.8414 28.6943 18.412 28.8008 17.9034C28.2639 17.9825 27.8269 18.0469 27.3254 18.1113ZM13.1984 25.6773C12.8658 24.6694 12.3224 23.7789 11.69 22.9291C11.0101 22.0154 10.238 21.1872 9.34653 20.4852C8.29621 19.6581 7.1737 18.9342 5.89746 18.4737C5.04901 18.1676 4.19103 17.938 3.27307 17.968C3.26054 18.0226 3.24212 18.0574 3.24728 18.0883C3.26666 18.2044 3.2956 18.3188 3.31765 18.4344C3.61008 19.9678 4.19352 21.3876 5.03909 22.7C5.75636 23.8132 6.60356 24.8199 7.64749 25.6491C8.54166 26.3592 9.44192 27.0626 10.356 27.7472C11.3623 28.5009 12.3848 29.2335 13.4061 29.9673C13.7011 30.1793 14.0163 30.3639 14.3958 30.6085C14.2011 29.7249 14.0473 28.9537 13.8586 28.1909C13.6552 27.3689 13.4192 26.5548 13.1984 25.6773Z" fill="#007734"/>
        <path d="M16.0503 0.5C16.6922 1.02641 17.354 1.51029 17.9164 2.08908C18.7867 2.98472 19.5273 3.98715 20.1323 5.08583C20.8135 6.3228 21.3198 7.62311 21.5766 9.00613C21.7652 10.0217 21.7917 11.0459 21.6955 12.0861C21.5566 13.5894 21.1028 14.9826 20.341 16.2648C19.7508 17.2581 19.0821 18.2116 18.3815 19.1329C17.6802 20.0551 16.8962 20.9157 16.1472 21.8023C16.1097 21.8468 16.0603 21.8814 15.9998 21.9355C15.5844 21.481 15.1642 21.054 14.7823 20.5956C14.2024 19.8996 13.6424 19.1869 13.0861 18.4721C11.8986 16.9465 10.9597 15.283 10.4992 13.4041C10.2223 12.2746 10.1922 11.1141 10.3072 9.93953C10.4625 8.35202 10.9318 6.87152 11.6574 5.47004C12.2017 4.41882 12.8749 3.44666 13.6619 2.54645C14.3308 1.78133 15.0786 1.12167 15.9205 0.524764C15.9602 0.5 15.993 0.5 16.0503 0.5ZM17.7704 7.40982C17.3584 6.48291 16.8894 5.59817 15.9766 5.01879C15.7224 5.24607 15.4336 5.44056 15.2273 5.69954C14.2732 6.89739 13.774 8.29299 13.6578 9.79282C13.554 11.1316 13.6417 12.4713 14.08 13.7693C14.4738 14.9357 15.0245 15.9932 16.0412 16.8447C16.363 16.4596 16.7058 16.1051 16.9841 15.7063C17.9091 14.381 18.2788 12.8726 18.3517 11.2896C18.3821 10.6284 18.3695 9.95401 18.2703 9.3015C18.1757 8.67964 17.9429 8.07843 17.7704 7.40982Z" fill="#007734"/>
        <path d="M21.882 32.9279C23.3969 31.3686 25.14 30.1618 27.0828 29.2502C28.1482 28.7503 29.2604 28.3542 30.4569 28.2672C30.7411 28.2465 31.0238 28.2042 31.3414 28.168C31.3404 28.9258 31.1426 29.5763 30.9006 30.2191C30.2241 32.0163 29.0605 33.4747 27.6403 34.7375C26.7532 35.5262 25.7685 36.1887 24.7126 36.7504C23.3407 37.4801 21.8907 37.9777 20.3676 38.2683C20.0015 38.3381 19.6198 38.3271 19.2454 38.354C19.0919 38.3651 18.9386 38.3781 18.7068 38.3964C19.1224 36.2146 20.3295 34.4902 21.882 32.9279Z" fill="#007734"/>
        <path d="M5.15904 29.3648C6.46959 30.0086 7.68211 30.767 8.77711 31.6804C10.3651 33.005 11.7584 34.5121 12.6476 36.4002C12.9436 37.0287 13.1142 37.7152 13.3566 38.4174C12.8047 38.3647 12.3654 38.3224 11.9259 38.2809C10.8737 38.1816 9.87728 37.8637 8.89928 37.4926C7.59113 36.9964 6.37261 36.3207 5.26659 35.4752C4.30695 34.7416 3.43318 33.9124 2.68218 32.9524C1.92091 31.9793 1.30286 30.9429 0.950642 29.7627C0.803367 29.2692 0.715212 28.7584 0.585693 28.1921C2.26831 28.2072 3.72024 28.7035 5.15904 29.3648Z" fill="#007734"/>
    </g>
    <defs>
        <clipPath id="clip0_139_902">
            <rect width="32" height="38" fill="white" transform="translate(0 0.5)"/>
        </clipPath>
    </defs>
</svg>