<svg aria-hidden="true" style="position: absolute; width: 0; height: 0; overflow: hidden;" version="1.1" xmlns="http://www.w3.org/2000/svg" xmlns:xlink="http://www.w3.org/1999/xlink">
    <defs>
        <symbol id="icon-logo" viewBox="0 0 27 32">
            <path d="M0.122 12.853c0.020-0.247 0.025-0.47 0.068-0.684 0.018-0.090 0.113-0.226 0.185-0.233 0.801-0.084 1.596-0.091 2.404 0.035 1.497 0.233 2.865 0.794 4.183 1.492 0.973 0.516 1.887 1.128 2.722 1.85 1.057 0.914 2.021 1.911 2.754 3.102 0.321 0.521 0.567 1.088 0.833 1.606 0.138-0.324 0.253-0.736 0.475-1.081 0.436-0.676 0.904-1.335 1.41-1.961 0.393-0.486 0.827-0.952 1.306-1.352 0.726-0.607 1.476-1.197 2.272-1.707 0.989-0.634 2.062-1.131 3.178-1.51 1.192-0.405 2.42-0.623 3.688-0.543 0.177 0.011 0.359 0.020 0.528 0.067 0.077 0.022 0.177 0.13 0.184 0.206 0.037 0.423 0.077 0.849 0.064 1.272-0.049 1.663-0.266 3.3-0.922 4.849-0.387 0.914-0.895 1.761-1.556 2.51-0.346 0.393-0.666 0.819-1.060 1.158-0.824 0.707-1.682 1.377-2.543 2.041-0.873 0.674-1.773 1.314-2.647 1.986-0.382 0.294-0.747 0.617-1.089 0.957-1.041 1.036-1.733 2.294-2.274 3.638-0.129 0.32-0.205 0.661-0.306 1.017-0.465 0.025-0.93 0.025-1.424 0-0.188-0.477-0.334-0.935-0.509-1.381-0.452-1.148-1.071-2.205-1.93-3.096-0.547-0.567-1.146-1.094-1.771-1.578-1.172-0.907-2.374-1.778-3.574-2.649-0.911-0.662-1.704-1.445-2.388-2.325-0.773-0.996-1.364-2.101-1.712-3.32-0.29-1.016-0.483-2.047-0.49-3.107-0.001-0.11-0.038-0.219-0.058-0.328 0-0.301 0-0.602 0-0.931zM22.543 14.864c-0.813 0.18-1.573 0.492-2.294 0.902-1.485 0.845-2.733 1.96-3.685 3.364-0.435 0.641-0.794 1.357-1.053 2.085-0.3 0.842-0.456 1.734-0.666 2.606-0.097 0.405-0.174 0.814-0.259 1.222 0.025 0.018 0.050 0.037 0.075 0.055 0.301-0.228 0.598-0.46 0.903-0.683 1.368-1 2.743-1.991 4.107-2.997 0.96-0.708 1.734-1.591 2.421-2.558 0.665-0.937 1.086-1.982 1.426-3.063 0.105-0.334 0.149-0.686 0.236-1.103-0.441 0.065-0.799 0.118-1.211 0.171zM10.951 21.072c-0.273-0.827-0.719-1.558-1.238-2.255-0.558-0.75-1.191-1.429-1.923-2.005-0.862-0.679-1.783-1.273-2.83-1.65-0.696-0.251-1.4-0.44-2.153-0.415-0.010 0.045-0.025 0.073-0.021 0.099 0.016 0.095 0.040 0.189 0.058 0.284 0.24 1.258 0.719 2.423 1.412 3.5 0.589 0.913 1.284 1.739 2.14 2.42 0.734 0.583 1.472 1.16 2.222 1.722 0.826 0.618 1.665 1.22 2.503 1.822 0.242 0.174 0.501 0.325 0.812 0.526-0.16-0.725-0.286-1.358-0.441-1.984-0.167-0.674-0.361-1.342-0.542-2.062z"></path>
            <path d="M13.291 0.413c0.527 0.432 1.070 0.829 1.531 1.304 0.714 0.735 1.322 1.557 1.818 2.459 0.559 1.015 0.974 2.082 1.185 3.217 0.155 0.833 0.177 1.674 0.098 2.527-0.114 1.233-0.486 2.377-1.111 3.429-0.484 0.815-1.033 1.597-1.608 2.353s-1.219 1.463-1.833 2.19c-0.031 0.037-0.071 0.065-0.121 0.109-0.341-0.373-0.686-0.723-0.999-1.099-0.476-0.571-0.935-1.156-1.392-1.742-0.974-1.252-1.745-2.617-2.123-4.158-0.227-0.927-0.252-1.879-0.158-2.843 0.127-1.303 0.512-2.517 1.108-3.667 0.447-0.863 0.999-1.66 1.645-2.399 0.549-0.628 1.162-1.169 1.853-1.659 0.033-0.020 0.059-0.020 0.107-0.020zM14.703 6.083c-0.338-0.761-0.723-1.486-1.472-1.962-0.209 0.186-0.446 0.346-0.615 0.559-0.783 0.983-1.192 2.128-1.288 3.359-0.085 1.098-0.013 2.198 0.346 3.263 0.323 0.957 0.775 1.825 1.609 2.523 0.264-0.316 0.545-0.607 0.774-0.934 0.759-1.087 1.062-2.325 1.122-3.624 0.025-0.543 0.015-1.096-0.067-1.631-0.078-0.51-0.269-1.004-0.41-1.552z"></path>
            <path d="M18.076 27.021c1.243-1.279 2.673-2.27 4.267-3.018 0.874-0.41 1.787-0.735 2.768-0.807 0.233-0.017 0.465-0.052 0.726-0.081-0.001 0.622-0.163 1.156-0.362 1.683-0.555 1.475-1.51 2.671-2.675 3.707-0.728 0.647-1.536 1.191-2.402 1.652-1.126 0.599-2.315 1.007-3.565 1.245-0.3 0.057-0.614 0.048-0.921 0.070-0.126 0.009-0.252 0.020-0.442 0.035 0.341-1.79 1.331-3.205 2.605-4.487z"></path>
            <path d="M4.355 24.097c1.075 0.528 2.070 1.151 2.969 1.9 1.303 1.087 2.446 2.323 3.176 3.873 0.243 0.516 0.383 1.079 0.582 1.655-0.453-0.043-0.813-0.078-1.174-0.112-0.863-0.081-1.681-0.342-2.483-0.647-1.073-0.407-2.073-0.962-2.981-1.655-0.787-0.602-1.504-1.282-2.121-2.070-0.625-0.798-1.132-1.649-1.421-2.617-0.121-0.405-0.193-0.824-0.299-1.289 1.381 0.012 2.572 0.42 3.752 0.962z"></path>
        </symbol>
        <symbol id="icon-menu" viewBox="0 0 32 32">
            <path d="M4.267 23.822v-2.607h23.467v2.607h-23.467zM4.267 17.304v-2.607h23.467v2.607h-23.467zM4.267 10.785v-2.607h23.467v2.607h-23.467z"></path>
        </symbol>
        <symbol id="icon-close" viewBox="0 0 32 32">
            <path d="M3.712 31.36l-3.072-3.072 12.288-12.288-12.288-12.288 3.072-3.072 12.288 12.288 12.288-12.288 3.072 3.072-12.288 12.288 12.288 12.288-3.072 3.072-12.288-12.288-12.288 12.288z"></path>
        </symbol>
        <symbol id="icon-globe" viewBox="0 0 32 32">
            <path d="M16 32c-2.213 0-4.293-0.42-6.24-1.261s-3.64-1.98-5.080-3.419-2.58-3.132-3.419-5.080c-0.839-1.948-1.26-4.028-1.261-6.24s0.419-4.292 1.261-6.24c0.842-1.948 1.981-3.641 3.419-5.080s3.131-2.579 5.080-3.419c1.949-0.841 4.029-1.261 6.24-1.261s4.291 0.42 6.24 1.261c1.949 0.841 3.642 1.98 5.080 3.419s2.578 3.132 3.421 5.080c0.843 1.948 1.262 4.028 1.259 6.24s-0.423 4.292-1.261 6.24c-0.837 1.948-1.977 3.641-3.419 5.080s-3.135 2.579-5.080 3.421c-1.945 0.842-4.025 1.261-6.24 1.259zM16 28.8c3.573 0 6.6-1.24 9.080-3.72s3.72-5.507 3.72-9.080c0-0.187-0.006-0.38-0.019-0.581s-0.020-0.367-0.021-0.499c-0.133 0.773-0.493 1.413-1.080 1.92s-1.28 0.76-2.080 0.76h-3.2c-0.88 0-1.633-0.313-2.259-0.939s-0.94-1.38-0.941-2.261v-1.6h-6.4v-3.2c0-0.88 0.314-1.633 0.941-2.259s1.38-0.94 2.259-0.941h1.6c0-0.613 0.167-1.153 0.501-1.619s0.74-0.846 1.219-1.141c-0.533-0.133-1.073-0.24-1.619-0.32s-1.113-0.12-1.701-0.12c-3.573 0-6.6 1.24-9.080 3.72s-3.72 5.507-3.72 9.080h8c1.76 0 3.267 0.627 4.52 1.88s1.88 2.76 1.88 4.52v1.6h-4.8v4.4c0.533 0.133 1.060 0.234 1.581 0.301s1.060 0.1 1.619 0.099z"></path>
        </symbol>
        <symbol id="icon-handshake" viewBox="0 0 32 32">
            <path d="M31.788 13.489l-3.19-6.382c-0.118-0.235-0.28-0.444-0.479-0.616s-0.429-0.303-0.678-0.386c-0.249-0.083-0.512-0.116-0.774-0.097s-0.518 0.089-0.753 0.206l-3.109 1.554-6.549-1.733c-0.168-0.044-0.344-0.044-0.512 0l-6.549 1.733-3.109-1.554c-0.235-0.118-0.491-0.188-0.753-0.206s-0.525 0.014-0.774 0.097c-0.249 0.083-0.48 0.214-0.678 0.386s-0.361 0.382-0.479 0.616l-3.19 6.381c-0.118 0.235-0.188 0.491-0.206 0.753s0.014 0.525 0.097 0.774 0.214 0.48 0.386 0.678c0.172 0.198 0.382 0.361 0.616 0.479l3.375 1.689 6.936 4.954c0.102 0.073 0.217 0.126 0.339 0.156l8 2c0.168 0.042 0.343 0.040 0.51-0.006s0.318-0.134 0.44-0.256l6.884-6.885 3.303-1.651c0.474-0.237 0.835-0.653 1.002-1.156s0.129-1.052-0.108-1.526h0.001zM24.926 17.66l-4.301-3.445c-0.193-0.154-0.436-0.232-0.682-0.218s-0.479 0.119-0.653 0.294c-2.226 2.242-4.707 1.959-6.29 0.959l5.405-5.25h3.976l3.401 6.801-0.856 0.859zM5.191 8l2.559 1.277-3.196 6.381-2.554-1.276 3.191-6.382zM19.691 22.891l-7.264-1.815-6.15-4.393 3.5-7 6.222-1.649 1.225 0.324-5.635 5.471c-0.212 0.212-0.373 0.468-0.473 0.751s-0.134 0.584-0.101 0.881 0.132 0.584 0.29 0.838c0.158 0.254 0.371 0.47 0.624 0.631 2.57 1.641 5.671 1.375 8.114-0.625l3.456 2.776-3.809 3.809zM27.441 15.658l-3.19-6.375 2.558-1.282 3.191 6.382-2.559 1.275zM16.473 27.241c-0.054 0.216-0.179 0.408-0.354 0.545s-0.392 0.212-0.615 0.212c-0.082 0-0.164-0.010-0.244-0.030l-5.209-1.302c-0.122-0.030-0.237-0.083-0.339-0.156l-3.294-2.353c-0.203-0.159-0.336-0.39-0.372-0.645s0.027-0.514 0.177-0.723c0.15-0.209 0.375-0.353 0.628-0.401s0.515 0.004 0.731 0.144l3.139 2.243 5.030 1.255c0.257 0.064 0.478 0.228 0.615 0.456s0.177 0.5 0.113 0.757l-0.005-0.001z"></path>
        </symbol>
        <symbol id="icon-international" viewBox="0 0 32 32">
            <path d="M16 28c-0.224 0-0.449-0.014-0.671-0.044-2.054-3.293-3.192-7.076-3.296-10.956h17.917c0.024-0.331 0.050-0.663 0.050-1 0-2.769-0.821-5.476-2.359-7.778s-3.725-4.097-6.283-5.156c-2.558-1.060-5.373-1.337-8.089-0.797s-5.21 1.874-7.168 3.832c-1.958 1.958-3.291 4.452-3.832 7.168s-0.263 5.531 0.797 8.089c1.060 2.558 2.854 4.745 5.156 6.283s5.009 2.359 7.778 2.359v-2zM27.95 15h-5.987c-0.107-3.68-1.048-7.287-2.753-10.55 2.359 0.658 4.46 2.021 6.022 3.907s2.511 4.204 2.718 6.643zM16.67 4.044c2.055 3.293 3.193 7.076 3.297 10.956h-7.934c0.104-3.88 1.242-7.663 3.297-10.956 0.445-0.058 0.897-0.058 1.342 0zM12.791 4.449c-1.705 3.263-2.647 6.871-2.754 10.551h-5.987c0.208-2.44 1.156-4.758 2.718-6.643s3.663-3.249 6.022-3.907zM4.050 17h5.987c0.107 3.68 1.048 7.287 2.753 10.55-2.359-0.658-4.46-2.021-6.022-3.907s-2.511-4.204-2.718-6.644z"></path>
            <path d="M25 25l5 2v-2l-5-2.5v-2.5c0-0.265-0.105-0.52-0.293-0.707s-0.442-0.293-0.707-0.293-0.52 0.105-0.707 0.293c-0.188 0.188-0.293 0.442-0.293 0.707v2.5l-5 2.5v2l5-2v3.5l-2 1.5v1l3-1 3 1v-1l-2-1.5v-3.5z"></path>
        </symbol>
        <symbol id="icon-truck" viewBox="0 0 32 32">
            <path d="M9.333 26.667c-1.111 0-2.056-0.389-2.833-1.167s-1.167-1.722-1.167-2.833h-3.333l0.6-2.667h3.767c0.378-0.422 0.822-0.75 1.333-0.983s1.056-0.35 1.633-0.351c0.578-0.001 1.122 0.116 1.633 0.351s0.956 0.562 1.333 0.983h5.567l2.8-12h-14.6l0.133-0.567c0.133-0.622 0.439-1.128 0.916-1.516s1.039-0.583 1.684-0.584h15.2l-1.233 5.333h3.9l4 5.333-1.333 6.667h-2.667c0 1.111-0.389 2.056-1.167 2.833s-1.722 1.167-2.833 1.167c-1.111 0-2.056-0.389-2.833-1.167s-1.167-1.722-1.167-2.833h-5.333c0 1.111-0.389 2.056-1.167 2.833s-1.722 1.167-2.833 1.167zM21.233 17.333h6.433l0.133-0.7-2.467-3.3h-3.167l-0.933 4zM20.6 8.233l0.067-0.233-2.8 12 0.067-0.233 1.133-4.867 1.533-6.667zM0.667 17.767l0.667-2.667h7.333l-0.667 2.667h-7.333zM3.333 12.9l0.667-2.667h8.667l-0.667 2.667h-8.667zM9.333 24c0.378 0 0.695-0.128 0.951-0.384s0.384-0.572 0.383-0.949c-0.001-0.377-0.129-0.693-0.384-0.949s-0.572-0.384-0.949-0.384c-0.378 0-0.694 0.128-0.949 0.384s-0.383 0.572-0.384 0.949c-0.001 0.377 0.127 0.694 0.384 0.951s0.573 0.384 0.949 0.383zM22.667 24c0.378 0 0.695-0.128 0.951-0.384s0.384-0.572 0.383-0.949c-0.001-0.377-0.129-0.693-0.384-0.949s-0.572-0.384-0.949-0.384-0.694 0.128-0.949 0.384c-0.255 0.256-0.383 0.572-0.384 0.949s0.127 0.694 0.384 0.951c0.257 0.257 0.573 0.384 0.949 0.383z"></path>
        </symbol>
        <symbol id="icon-figures" viewBox="0 0 32 32">
            <path d="M17.333 7c0-0.796 0.316-1.559 0.879-2.121s1.326-0.879 2.121-0.879h4.667c0.796 0 1.559 0.316 2.121 0.879s0.879 1.326 0.879 2.121v4.667c0 0.796-0.316 1.559-0.879 2.121s-1.326 0.879-2.121 0.879h-4.667c-0.796 0-1.559-0.316-2.121-0.879s-0.879-1.326-0.879-2.121v-4.667zM20.333 6c-0.265 0-0.52 0.105-0.707 0.293s-0.293 0.442-0.293 0.707v4.667c0 0.552 0.448 1 1 1h4.667c0.265 0 0.52-0.105 0.707-0.293s0.293-0.442 0.293-0.707v-4.667c0-0.265-0.105-0.52-0.293-0.707s-0.442-0.293-0.707-0.293h-4.667zM11.267 5.197c-0.179-0.36-0.454-0.663-0.796-0.875s-0.735-0.324-1.137-0.324c-0.402 0-0.796 0.112-1.137 0.324s-0.617 0.515-0.796 0.875l-3.163 6.288c-0.731 1.457 0.316 3.181 1.933 3.181h6.325c1.617 0 2.665-1.724 1.933-3.181l-3.163-6.288zM9.187 6.096c0.027-0.053 0.051-0.069 0.063-0.076 0.026-0.014 0.055-0.021 0.084-0.020 0.037 0 0.067 0.011 0.084 0.020 0.012 0.007 0.035 0.023 0.063 0.076l3.163 6.288c0.017 0.031 0.026 0.066 0.024 0.101-0.002 0.033-0.012 0.065-0.029 0.093s-0.040 0.053-0.067 0.071c-0.023 0.013-0.049 0.019-0.075 0.017h-6.325c-0.026 0.002-0.052-0.004-0.075-0.017-0.027-0.018-0.050-0.042-0.067-0.071s-0.026-0.060-0.028-0.093c-0.002-0.035 0.006-0.070 0.023-0.101l3.163-6.288zM6 22.667c0-0.884 0.351-1.732 0.976-2.357s1.473-0.976 2.357-0.976c0.884 0 1.732 0.351 2.357 0.976s0.976 1.473 0.976 2.357c0 0.884-0.351 1.732-0.976 2.357s-1.473 0.976-2.357 0.976c-0.884 0-1.732-0.351-2.357-0.976s-0.976-1.473-0.976-2.357zM9.333 17.333c-1.414 0-2.771 0.562-3.771 1.562s-1.562 2.357-1.562 3.771c0 1.414 0.562 2.771 1.562 3.771s2.357 1.562 3.771 1.562c1.415 0 2.771-0.562 3.771-1.562s1.562-2.357 1.562-3.771c0-1.415-0.562-2.771-1.562-3.771s-2.357-1.562-3.771-1.562zM23.5 16.993c-0.253-0.146-0.541-0.223-0.833-0.223s-0.58 0.077-0.833 0.223l-3.664 2.115c-0.253 0.146-0.464 0.357-0.61 0.61s-0.223 0.541-0.223 0.834v4.229c0 0.596 0.319 1.147 0.833 1.444l3.664 2.115c0.253 0.146 0.541 0.223 0.833 0.223s0.58-0.077 0.833-0.223l3.664-2.115c0.253-0.146 0.464-0.357 0.61-0.61s0.223-0.541 0.223-0.834v-4.229c0-0.596-0.319-1.147-0.833-1.444l-3.664-2.115zM19.336 20.744l3.331-1.923 3.331 1.923v3.845l-3.331 1.923-3.331-1.923v-3.845z"></path>
        </symbol>
        <symbol id="icon-check-circle" viewBox="0 0 32 32">
            <path d="M29.090 14.677v1.331c-0.001 3.597-1.468 6.85-3.84 9.208s-5.644 3.812-9.258 3.809c-3.614-0.003-6.886-1.46-9.254-3.821s-3.831-5.614-3.83-9.212c0.001-3.598 1.468-6.85 3.84-9.208s5.643-3.812 9.258-3.811c1.935 0.001 3.761 0.418 5.308 1.122 0.73 0.333 1.594 0.011 1.927-0.715s0.012-1.586-0.719-1.918c-1.93-0.877-4.169-1.382-6.515-1.384-4.417-0.003-8.42 1.779-11.316 4.656s-4.689 6.86-4.692 11.255c-0.003 4.395 1.787 8.378 4.679 11.26s6.893 4.667 11.31 4.669c4.417 0.001 8.42-1.779 11.316-4.656s4.691-6.859 4.694-11.256v-1.331c0-0.799-0.652-1.447-1.455-1.447s-1.455 0.648-1.455 1.447h0.001zM29.517 3.407l-13.517 13.462-3.335-3.317c-0.569-0.566-1.489-0.566-2.057 0s-0.569 1.482 0 2.046l4.364 4.342c0.569 0.566 1.489 0.564 2.058 0l14.545-14.487c0.567-0.566 0.567-1.482-0.001-2.046s-1.489-0.564-2.057 0.001v-0.001z"></path>
        </symbol>
        <symbol id="icon-headset" viewBox="0 0 32 32">
            <path d="M16 2.667c-7.352 0-13.333 5.981-13.333 13.333v5.524c0 1.365 1.196 2.476 2.667 2.476h1.333c0.354 0 0.693-0.14 0.943-0.391s0.391-0.589 0.391-0.943v-6.857c0-0.354-0.14-0.693-0.391-0.943s-0.589-0.391-0.943-0.391h-1.211c0.741-5.16 5.181-9.143 10.544-9.143s9.803 3.983 10.544 9.143h-1.211c-0.354 0-0.693 0.14-0.943 0.391s-0.391 0.589-0.391 0.943v8.191c0 1.471-1.196 2.667-2.667 2.667h-2.667v-1.333h-5.333v4h8c2.941 0 5.333-2.392 5.333-5.333 1.471 0 2.667-1.111 2.667-2.476v-5.524c0-7.352-5.981-13.333-13.333-13.333z"></path>
        </symbol>
        <symbol id="icon-gears" viewBox="0 0 32 32">
            <path d="M10.141 17.979h0.387l0.027 0.040c0.72 0 1.227 0 1.733-0.4 0.48-0.413 0.573-0.96 0.68-1.6l0.12-0.747 0.131-0.075c0.123-0.068 0.244-0.141 0.363-0.219l0.693 0.253c0.573 0.227 1.12 0.44 1.787 0.227 0.58-0.211 0.848-0.656 1.201-1.245l0.013-0.021 0.267-0.453c0.307-0.533 0.573-1 0.453-1.56-0.107-0.613-0.507-0.947-1.067-1.4l-0.6-0.493v-0.56l0.643-0.52c0.512-0.42 0.917-0.753 1.009-1.32 0.133-0.609-0.144-1.088-0.488-1.683l-0.005-0.011-0.213-0.36c-0.347-0.6-0.627-1.067-1.227-1.28-0.587-0.2-1.107-0.013-1.747 0.227l-0.707 0.253c-0.16-0.107-0.333-0.2-0.505-0.293l-0.12-0.747c-0.107-0.653-0.2-1.2-0.693-1.613-0.48-0.4-1.027-0.4-1.72-0.4h-0.387c-0.707 0-1.227 0-1.733 0.4-0.48 0.4-0.573 0.933-0.68 1.6l-0.133 0.747c-0.173 0.093-0.347 0.187-0.507 0.293l-0.707-0.267h-0.004c-0.652-0.24-1.157-0.427-1.757-0.227-0.6 0.213-0.88 0.68-1.227 1.28l-0.253 0.427c-0.32 0.547-0.587 1.027-0.467 1.587 0.107 0.627 0.507 0.96 1.067 1.413l0.6 0.493v0.533l-0.64 0.52c-0.52 0.413-0.933 0.747-1.027 1.32-0.133 0.613 0.133 1.080 0.493 1.707l0.227 0.387 0.016 0.027c0.339 0.56 0.607 1.004 1.224 1.227 0.583 0.195 1.128-0.013 1.671-0.221l0.756-0.285c0.173 0.107 0.333 0.2 0.507 0.293l0.147 0.813c0.093 0.6 0.187 1.133 0.707 1.573 0.48 0.36 0.987 0.36 1.693 0.36zM10.141 15.979h-0.387l0.053-0.027-0.009-0.071c-0.011-0.092-0.026-0.185-0.044-0.276l-0.227-1.267c-0.028-0.165-0.098-0.32-0.203-0.451s-0.242-0.232-0.397-0.296c-0.36-0.147-0.693-0.333-1.027-0.587-0.267-0.213-0.627-0.267-0.947-0.147l-1.213 0.453c-0.052 0.016-0.114 0.039-0.185 0.068-0.059 0.024-0.12 0.048-0.173 0.067-0.067-0.093-0.133-0.2-0.2-0.32l-0.253-0.427c-0.040-0.080-0.080-0.147-0.12-0.213l0.253-0.213 1.027-0.827c0.28-0.227 0.427-0.587 0.36-0.947-0.040-0.187-0.040-0.373-0.040-0.547s0.013-0.36 0.040-0.533c0.027-0.175 0.008-0.355-0.055-0.521s-0.168-0.313-0.305-0.426l-1.137-0.907c-0.056-0.045-0.112-0.089-0.157-0.133l0.040-0.068c0.033-0.058 0.073-0.124 0.12-0.2l0.213-0.36c0.035-0.067 0.080-0.141 0.121-0.211l0.067-0.109 0.187 0.067c0.062 0.024 0.124 0.046 0.187 0.067l1.2 0.44c0.307 0.12 0.667 0.067 0.947-0.147 0.333-0.253 0.667-0.44 1.013-0.573 0.32-0.133 0.547-0.413 0.613-0.76l0.24-1.347c0.005-0.043 0.012-0.083 0.019-0.12 0.011-0.048 0.018-0.097 0.020-0.147h1.16c0.008 0.061 0.020 0.133 0.032 0.199l0.021 0.135 0.213 1.267c0.067 0.347 0.293 0.627 0.627 0.76 0.373 0.147 0.707 0.347 1 0.573 0.267 0.213 0.64 0.267 0.96 0.147l1.2-0.44c0.12-0.040 0.267-0.093 0.373-0.133l0.033 0.059c0.047 0.081 0.1 0.176 0.153 0.261l0.24 0.413c0.053 0.093 0.093 0.16 0.133 0.227l-0.111 0.089-0.156 0.124-1.013 0.827c-0.267 0.213-0.4 0.573-0.36 0.907l0.015 0.179c0.013 0.133 0.027 0.271 0.027 0.408 0 0.18-0.023 0.347-0.045 0.533l-0.009 0.067c-0.040 0.347 0.093 0.68 0.36 0.893l1.267 1.040-0.040 0.068c-0.033 0.058-0.073 0.124-0.12 0.2l-0.227 0.387v0.001c-0.067 0.107-0.133 0.212-0.187 0.304-0.133-0.040-0.28-0.093-0.373-0.133l-1.2-0.44c-0.158-0.053-0.326-0.068-0.491-0.042s-0.321 0.090-0.455 0.189c-0.32 0.24-0.653 0.44-1.027 0.587-0.32 0.133-0.547 0.413-0.6 0.76l-0.213 1.267-0.009 0.072c-0.010 0.088-0.025 0.175-0.044 0.261h-0.773zM20.809 30.645c-0.707 0-1.213 0-1.693-0.36-0.52-0.44-0.613-0.973-0.707-1.573l-0.147-0.813c-0.173-0.093-0.333-0.187-0.507-0.293l-0.756 0.285c-0.544 0.208-1.089 0.416-1.672 0.221-0.616-0.223-0.884-0.667-1.224-1.227l-0.015-0.027-0.227-0.387c-0.36-0.627-0.613-1.093-0.493-1.707 0.092-0.567 0.511-0.912 1.036-1.347l0.629-0.507v-0.533l-0.6-0.48c-0.547-0.44-0.96-0.787-1.067-1.4-0.117-0.56 0.136-1.019 0.421-1.537l0.019-0.036 0.267-0.453 0.013-0.020c0.353-0.589 0.62-1.035 1.201-1.245 0.667-0.213 1.213 0 1.787 0.227l0.693 0.253c0.16-0.107 0.333-0.2 0.507-0.293l0.133-0.76c0.107-0.667 0.2-1.187 0.667-1.6 0.533-0.4 1.040-0.4 1.747-0.4h0.387c0.72 0 1.227 0 1.707 0.387 0.507 0.44 0.6 0.987 0.707 1.627l0.12 0.747c0.173 0.093 0.347 0.187 0.507 0.293l0.707-0.253c0.56-0.227 1.107-0.44 1.72-0.24 0.616 0.223 0.884 0.667 1.224 1.227l0.241 0.412c0.36 0.627 0.613 1.093 0.493 1.707-0.092 0.568-0.511 0.913-1.036 1.347l-0.616 0.507v0.547l0.6 0.48c0.547 0.44 0.96 0.787 1.067 1.4 0.117 0.561-0.136 1.019-0.421 1.539l-0.019 0.035-0.267 0.453-0.013 0.021c-0.353 0.589-0.62 1.035-1.201 1.245-0.667 0.213-1.213 0-1.787-0.227l-0.693-0.253c-0.117 0.079-0.243 0.149-0.363 0.219l-0.131 0.075-0.12 0.747c-0.107 0.64-0.2 1.187-0.68 1.6-0.507 0.4-1.013 0.4-1.733 0.4l-0.027-0.027h-0.387zM20.436 28.645h1.147c0.025-0.11 0.043-0.221 0.053-0.333l0.213-1.267c0.053-0.347 0.28-0.627 0.6-0.76 0.373-0.147 0.707-0.347 1.027-0.587 0.267-0.213 0.627-0.253 0.947-0.147l1.2 0.44c0.093 0.040 0.24 0.093 0.373 0.133 0.053-0.093 0.12-0.2 0.187-0.307l0.227-0.387c0.047-0.075 0.087-0.141 0.12-0.199l0.024-0.040 0.016-0.027-0.035-0.031c-0.075-0.064-0.152-0.125-0.231-0.184l-1-0.813c-0.267-0.213-0.4-0.547-0.373-0.893l0.011-0.097c0.023-0.184 0.043-0.345 0.043-0.516 0-0.2-0.027-0.4-0.053-0.587-0.020-0.167 0.002-0.337 0.065-0.493s0.164-0.294 0.295-0.4l1.013-0.827 0.267-0.213c-0.040-0.067-0.080-0.133-0.12-0.213l-0.253-0.413c-0.067-0.12-0.133-0.227-0.2-0.32l-0.175 0.067c-0.069 0.027-0.136 0.053-0.187 0.067l-1.213 0.453c-0.32 0.12-0.693 0.067-0.96-0.147-0.293-0.227-0.627-0.427-1.013-0.587-0.157-0.064-0.295-0.168-0.4-0.301s-0.174-0.291-0.2-0.459l-0.213-1.267-0.021-0.135-0.032-0.199h-1.16l-0.040 0.267-0.24 1.347c-0.053 0.333-0.293 0.613-0.6 0.747-0.373 0.147-0.707 0.347-1.027 0.587-0.135 0.099-0.291 0.163-0.456 0.189s-0.333 0.011-0.491-0.042l-1.2-0.44c-0.093-0.040-0.24-0.093-0.373-0.133-0.053 0.093-0.119 0.2-0.185 0.305v0.001l-0.227 0.387-0.16 0.267 0.033 0.029c0.072 0.060 0.152 0.128 0.233 0.184l1.027 0.827c0.28 0.227 0.427 0.6 0.36 0.96-0.027 0.173-0.040 0.347-0.040 0.533s0 0.36 0.040 0.533c0.067 0.36-0.067 0.72-0.36 0.96l-1.027 0.827-0.127 0.107h-0.001l-0.127 0.107c0.040 0.067 0.080 0.133 0.12 0.213l0.253 0.413c0.067 0.12 0.133 0.227 0.2 0.32 0.057-0.018 0.116-0.040 0.176-0.065 0.068-0.027 0.133-0.053 0.185-0.067l1.213-0.453c0.32-0.12 0.68-0.067 0.947 0.147 0.333 0.253 0.667 0.44 1.027 0.587 0.32 0.133 0.547 0.413 0.6 0.747l0.227 1.267c0.019 0.102 0.033 0.194 0.043 0.276l0.009 0.056zM10.329 11.979c-1.107 0-2-0.893-2-2s0.893-2 2-2c1.107 0 2 0.893 2 2s-0.893 2-2 2zM18.996 22.645c0 1.107 0.893 2 2 2s2-0.893 2-2c0-1.107-0.893-2-2-2s-2 0.893-2 2z"></path>
        </symbol>
        <symbol id="icon-shield" viewBox="0 0 32 32">
            <path d="M28 14.667c0 7.4-5.12 14.32-12 16-6.88-1.68-12-8.6-12-16v-8l12-5.333 12 5.333v8zM16 28c5-1.333 9.333-7.28 9.333-13.040v-6.56l-9.333-4.16-9.333 4.16v6.56c0 5.76 4.333 11.707 9.333 13.040zM13.333 22.667l-5.333-5.333 1.88-1.88 3.453 3.44 8.787-8.787 1.88 1.893z"></path>
        </symbol>
        <symbol id="icon-linkedin" viewBox="0 0 32 32">
            <path d="M11.282 10.359h6.244v3.201h0.089c0.869-1.558 2.995-3.201 6.164-3.201 6.591 0 7.81 4.103 7.81 9.439v10.868h-6.509v-9.635c0-2.298-0.047-5.254-3.386-5.254-3.39 0-3.907 2.503-3.907 5.087v9.802h-6.506v-20.308z"></path>
            <path d="M0 10.359h6.769v20.308h-6.769v-20.308z"></path>
            <path d="M6.769 4.718c0 1.869-1.515 3.385-3.385 3.385s-3.385-1.515-3.385-3.385c0-1.869 1.515-3.385 3.385-3.385s3.385 1.515 3.385 3.385z"></path>
        </symbol>
        <symbol id="icon-whatsapp" viewBox="0 0 32 32">
            <path d="M27.076 5.104c-2.874-2.88-6.696-4.464-10.77-4.464-8.388 0-15.216 6.828-15.216 15.222 0 2.682 0.702 5.304 2.034 7.608l-2.16 7.89 8.070-2.118c2.226 1.212 4.728 1.854 7.272 1.854h0.006c8.388 0 15.222-6.828 15.222-15.222 0-4.068-1.584-7.89-4.458-10.77zM16.312 28.528c-2.274 0-4.5-0.612-6.444-1.764l-0.462-0.276-4.788 1.254 1.278-4.668-0.3-0.48c-1.272-2.010-1.938-4.338-1.938-6.732 0-6.978 5.676-12.654 12.66-12.654 3.378 0 6.558 1.32 8.946 3.708 2.388 2.394 3.702 5.568 3.702 8.952-0.006 6.984-5.682 12.66-12.654 12.66zM23.248 19.048c-0.378-0.192-2.25-1.11-2.598-1.236s-0.6-0.192-0.858 0.192c-0.252 0.378-0.984 1.236-1.206 1.494-0.222 0.252-0.444 0.288-0.822 0.096s-1.608-0.594-3.060-1.89c-1.128-1.008-1.896-2.256-2.118-2.634s-0.024-0.588 0.168-0.774c0.174-0.168 0.378-0.444 0.57-0.666s0.252-0.378 0.378-0.636c0.126-0.252 0.066-0.474-0.030-0.666s-0.858-2.064-1.17-2.826c-0.306-0.744-0.624-0.642-0.858-0.654-0.222-0.012-0.474-0.012-0.726-0.012s-0.666 0.096-1.014 0.474c-0.348 0.378-1.332 1.302-1.332 3.174s1.362 3.678 1.554 3.936c0.192 0.252 2.682 4.098 6.498 5.742 0.906 0.39 1.614 0.624 2.166 0.804 0.912 0.288 1.74 0.246 2.394 0.15 0.732-0.108 2.25-0.918 2.568-1.806s0.318-1.65 0.222-1.806c-0.090-0.168-0.342-0.264-0.726-0.456z"></path>
        </symbol>
        <symbol id="icon-wechat" viewBox="0 0 32 32">
            <path d="M31.019 16.962c-0.78-1.774-2.25-3.182-3.958-4.050-3.013-1.532-6.76-1.523-9.765 0.039-2.088 1.076-3.831 3.004-4.325 5.349-0.407 1.727-0.042 3.587 0.87 5.091 1.358 2.264 3.813 3.71 6.363 4.174 1.847 0.377 3.758 0.153 5.552-0.366 1.078 0.419 2.038 1.098 3.082 1.601-0.27-0.909-0.558-1.807-0.865-2.701 1.172-0.835 2.235-1.878 2.872-3.186 0.952-1.819 1.010-4.075 0.173-5.951v0zM18.317 4.796c-3.193-1.804-7.17-2.076-10.606-0.829-2.258 0.816-4.301 2.333-5.563 4.395-1.146 1.864-1.574 4.187-1.023 6.319 0.554 2.365 2.19 4.348 4.175 5.672-0.384 1.092-0.749 2.184-1.094 3.284 1.248-0.655 2.496-1.34 3.745-2.006 1.498 0.482 3.091 0.718 4.685 0.666-0.422-1.212-0.518-2.525-0.326-3.793 0.288-1.762 1.248-3.374 2.552-4.568 2.209-2.076 5.339-2.951 8.315-2.739-0.558-2.744-2.478-5.063-4.895-6.4l0.035-0.001zM20.535 17.634c-0.268 0.838-1.48 1.090-2.067 0.452-0.648-0.59-0.396-1.822 0.454-2.086 0.94-0.398 2.025 0.69 1.613 1.634v-0zM26.672 17.752c-0.328 0.753-1.46 0.929-2.017 0.347-0.268-0.245-0.346-0.616-0.44-0.938 0.133-0.589 0.538-1.199 1.19-1.228 0.902-0.126 1.71 0.994 1.248 1.82l0.019-0.001zM17.514 9.457c0.010 1.235-1.632 2.006-2.553 1.168-0.956-0.688-0.685-2.361 0.438-2.707 1.005-0.405 2.193 0.442 2.113 1.523l0.003 0.015zM9.759 9.771c-0.22 1.073-1.652 1.591-2.491 0.871-0.971-0.688-0.699-2.392 0.442-2.739 1.117-0.432 2.387 0.707 2.049 1.867z"></path>
        </symbol>
        <symbol id="icon-telegram" viewBox="0 0 32 32">
            <path d="M16.246 0.64c-8.484 0-15.36 6.876-15.36 15.36s6.876 15.36 15.36 15.36c8.484 0 15.36-6.876 15.36-15.36s-6.876-15.36-15.36-15.36zM23.794 11.17l-2.52 11.874c-0.174 0.846-0.684 1.044-1.392 0.654l-3.84-2.838-1.842 1.794c-0.216 0.21-0.384 0.384-0.768 0.384-0.498 0-0.414-0.186-0.582-0.66l-1.308-4.296-3.798-1.182c-0.822-0.252-0.828-0.816 0.186-1.218l14.796-5.712c0.672-0.306 1.326 0.162 1.068 1.2z"></path>
        </symbol>
        <symbol id="icon-phone" viewBox="0 0 32 32">
            <path d="M27.766 25.619v0.749c0 0.636-0.516 1.152-1.152 1.152h-2.304c-10.816 0-19.584-8.768-19.584-19.584v-2.304c0-0.636 0.516-1.152 1.152-1.152h4.608c0.636 0 1.152 0.516 1.152 1.152v4.608c0 0.645-0.357 1.509-0.806 1.958l-2.465 2.465c1.751 4.147 5.069 7.465 9.216 9.216l2.442-2.442c0.461-0.461 1.325-0.818 1.958-0.818h4.631c0.631 0.007 1.14 0.52 1.14 1.152v3.859l0.012-0.012z"></path>
        </symbol>
        <symbol id="icon-email" viewBox="0 0 32 32">
            <path d="M25.462 7.040c1.272 0 2.304 1.003 2.304 2.24v13.44c0 1.237-1.032 2.24-2.304 2.24h-18.432c-1.272 0-2.304-1.003-2.304-2.24v-13.44c0-1.232 1.037-2.24 2.304-2.24h18.432zM20.428 17.232l7.338 5.488v-2.24l-5.898-4.368 5.898-4.592v-2.24l-11.52 8.96-11.52-8.96v2.24l5.898 4.592-5.898 4.368v2.24l7.338-5.488 4.182 3.248 4.182-3.248z"></path>
        </symbol>
        <symbol id="icon-user" viewBox="0 0 32 32">
            <path d="M10.24 10.24c0-3.181 2.579-5.76 5.76-5.76s5.76 2.579 5.76 5.76v2.304c0 3.181-2.579 5.76-5.76 5.76s-5.76-2.579-5.76-5.76v-2.304zM4.48 23.695c3.295-1.941 7.259-3.087 11.49-3.087 0.010 0 0.021 0 0.031 0h-0.002c4.193 0 8.133 1.117 11.52 3.087v3.825h-23.040v-3.825z"></path>
        </symbol>
        <symbol id="icon-checkmark" viewBox="0 0 32 32">
            <path d="M1.455 17.455l2.909-2.909 7.273 7.273 16-16 2.909 2.909-18.909 18.909-10.182-10.182z"></path>
        </symbol>
        <symbol id="icon-send" viewBox="0 0 32 32">
            <path d="M4.48 4.48l23.040 11.52-23.040 11.52v-23.040zM4.48 13.696v4.608l11.52-2.304-11.52-2.304z"></path>
        </symbol>
    </defs>
</svg>