<svg aria-hidden="true" style="position: absolute; width: 0; height: 0; overflow: hidden;" version="1.1" xmlns="http://www.w3.org/2000/svg" xmlns:xlink="http://www.w3.org/1999/xlink">
    <defs>
        <symbol id="icon-logo" viewBox="0 0 26 32">
            <path d="M0 12.813c0.020-0.248 0.024-0.471 0.068-0.687 0.018-0.090 0.112-0.226 0.184-0.234 0.797-0.084 1.588-0.091 2.391 0.035 1.489 0.234 2.85 0.797 4.16 1.498 0.968 0.518 1.877 1.132 2.708 1.857 1.052 0.917 2.011 1.918 2.739 3.113 0.319 0.523 0.564 1.091 0.828 1.612 0.138-0.325 0.251-0.739 0.472-1.085 0.433-0.678 0.899-1.34 1.402-1.968 0.39-0.488 0.823-0.955 1.299-1.357 0.722-0.609 1.468-1.201 2.26-1.713 0.984-0.636 2.050-1.135 3.161-1.515 1.185-0.406 2.407-0.625 3.668-0.544 0.176 0.011 0.357 0.020 0.525 0.068 0.077 0.022 0.176 0.13 0.183 0.206 0.037 0.425 0.076 0.852 0.064 1.277-0.049 1.669-0.265 3.311-0.917 4.866-0.385 0.917-0.89 1.767-1.548 2.519-0.345 0.394-0.662 0.822-1.055 1.162-0.82 0.709-1.673 1.381-2.529 2.048-0.868 0.676-1.764 1.318-2.633 1.993-0.38 0.296-0.743 0.619-1.083 0.96-1.035 1.040-1.723 2.302-2.262 3.651-0.128 0.321-0.204 0.663-0.305 1.020-0.463 0.025-0.925 0.025-1.416 0-0.187-0.479-0.332-0.938-0.507-1.386-0.449-1.152-1.065-2.212-1.919-3.107-0.544-0.569-1.14-1.098-1.761-1.583-1.166-0.911-2.361-1.784-3.554-2.659-0.906-0.664-1.695-1.45-2.375-2.333-0.769-0.999-1.356-2.108-1.703-3.331-0.289-1.019-0.48-2.054-0.488-3.118-0.001-0.11-0.038-0.22-0.058-0.33 0-0.302 0-0.604 0-0.935zM22.299 14.83c-0.809 0.181-1.564 0.493-2.282 0.906-1.477 0.849-2.719 1.967-3.665 3.376-0.432 0.644-0.79 1.361-1.048 2.093-0.298 0.844-0.454 1.74-0.662 2.615-0.097 0.406-0.173 0.817-0.258 1.226 0.025 0.018 0.050 0.037 0.075 0.055 0.299-0.229 0.595-0.462 0.898-0.686 1.361-1.003 2.728-1.998 4.085-3.008 0.955-0.71 1.724-1.597 2.408-2.567 0.662-0.94 1.080-1.989 1.419-3.074 0.104-0.335 0.148-0.688 0.235-1.107-0.438 0.065-0.795 0.118-1.204 0.171zM10.771 21.060c-0.271-0.83-0.715-1.563-1.231-2.263-0.555-0.752-1.185-1.434-1.912-2.012-0.857-0.681-1.773-1.277-2.815-1.656-0.692-0.252-1.393-0.441-2.142-0.416-0.010 0.045-0.025 0.074-0.021 0.099 0.016 0.096 0.039 0.19 0.057 0.285 0.239 1.263 0.715 2.432 1.405 3.512 0.585 0.917 1.277 1.746 2.129 2.428 0.73 0.585 1.464 1.164 2.21 1.728 0.821 0.621 1.656 1.224 2.489 1.828 0.241 0.175 0.498 0.327 0.808 0.528-0.159-0.727-0.284-1.363-0.438-1.991-0.166-0.677-0.359-1.347-0.539-2.070z"></path>
            <path d="M13.098 0.329c0.524 0.433 1.064 0.832 1.523 1.308 0.71 0.737 1.315 1.563 1.808 2.468 0.556 1.019 0.969 2.089 1.179 3.228 0.154 0.836 0.175 1.68 0.097 2.536-0.113 1.238-0.484 2.385-1.105 3.441-0.482 0.818-1.027 1.603-1.599 2.362s-1.212 1.468-1.823 2.198c-0.031 0.037-0.071 0.065-0.12 0.11-0.339-0.374-0.682-0.726-0.994-1.103-0.473-0.573-0.93-1.16-1.384-1.748-0.969-1.256-1.735-2.626-2.111-4.173-0.226-0.93-0.25-1.886-0.157-2.853 0.127-1.307 0.51-2.526 1.102-3.68 0.444-0.866 0.994-1.666 1.636-2.407 0.546-0.63 1.156-1.173 1.843-1.665 0.032-0.020 0.059-0.020 0.106-0.020zM14.502 6.019c-0.336-0.763-0.719-1.492-1.464-1.969-0.207 0.187-0.443 0.347-0.611 0.561-0.779 0.986-1.186 2.135-1.281 3.37-0.085 1.102-0.013 2.205 0.345 3.274 0.321 0.96 0.771 1.831 1.601 2.532 0.263-0.317 0.542-0.609 0.77-0.937 0.755-1.091 1.057-2.333 1.116-3.637 0.025-0.544 0.015-1.1-0.066-1.637-0.077-0.512-0.267-1.007-0.408-1.558z"></path>
            <path d="M17.857 27.030c1.236-1.284 2.659-2.278 4.244-3.028 0.869-0.412 1.777-0.738 2.754-0.809 0.232-0.017 0.463-0.052 0.722-0.082-0.001 0.624-0.162 1.16-0.36 1.689-0.552 1.48-1.502 2.681-2.661 3.72-0.724 0.649-1.528 1.195-2.389 1.657-1.119 0.601-2.303 1.011-3.546 1.25-0.299 0.057-0.61 0.048-0.916 0.071-0.125 0.009-0.25 0.020-0.44 0.035 0.339-1.796 1.324-3.216 2.591-4.503z"></path>
            <path d="M4.21 24.096c1.069 0.53 2.059 1.155 2.953 1.907 1.296 1.091 2.433 2.332 3.159 3.886 0.242 0.518 0.381 1.083 0.579 1.661-0.45-0.043-0.809-0.078-1.168-0.112-0.859-0.082-1.672-0.344-2.47-0.649-1.068-0.409-2.062-0.965-2.965-1.661-0.783-0.604-1.496-1.287-2.109-2.077-0.621-0.801-1.126-1.655-1.413-2.626-0.12-0.406-0.192-0.827-0.298-1.293 1.373 0.012 2.558 0.421 3.732 0.966z"></path>
        </symbol>
        <symbol id="icon-menu" viewBox="0 0 32 32">
            <path d="M0 4.8h32v3.2h-32v-3.2zM0 14.4h32v3.2h-32v-3.2zM0 24h32v3.2h-32v-3.2z"></path>
        </symbol>
        <symbol id="icon-international" viewBox="0 0 32 32">
            <path d="M16 28c-0.224 0-0.449-0.014-0.671-0.044-2.055-3.293-3.192-7.076-3.296-10.956h17.917c0.024-0.331 0.050-0.663 0.050-1 0-2.769-0.821-5.476-2.359-7.778s-3.725-4.097-6.283-5.156-5.373-1.337-8.089-0.797c-2.716 0.54-5.21 1.874-7.168 3.832s-3.291 4.453-3.832 7.168c-0.54 2.716-0.263 5.531 0.797 8.089s2.854 4.745 5.156 6.283c2.302 1.538 5.009 2.359 7.778 2.359v-2zM27.95 15h-5.987c-0.107-3.68-1.048-7.287-2.753-10.55 2.359 0.658 4.46 2.021 6.022 3.907s2.511 4.204 2.718 6.643zM16.67 4.044c2.055 3.293 3.193 7.076 3.297 10.956h-7.934c0.104-3.88 1.242-7.663 3.297-10.956 0.445-0.058 0.897-0.058 1.342 0zM12.791 4.449c-1.706 3.263-2.647 6.871-2.754 10.551h-5.987c0.208-2.44 1.156-4.758 2.718-6.643s3.663-3.249 6.022-3.907zM4.050 17h5.987c0.107 3.68 1.048 7.287 2.753 10.55-2.359-0.658-4.46-2.021-6.022-3.907s-2.511-4.204-2.718-6.643z"></path>
            <path d="M25 25l5 2v-2l-5-2.5v-2.5c0-0.265-0.105-0.52-0.293-0.707s-0.442-0.293-0.707-0.293c-0.265 0-0.52 0.105-0.707 0.293s-0.293 0.442-0.293 0.707v2.5l-5 2.5v2l5-2v3.5l-2 1.5v1l3-1 3 1v-1l-2-1.5v-3.5z"></path>
        </symbol>
        <symbol id="icon-partnership" viewBox="0 0 32 32">
            <path d="M31.788 13.489l-3.19-6.383c-0.118-0.235-0.28-0.444-0.479-0.616s-0.429-0.303-0.678-0.386c-0.249-0.083-0.512-0.116-0.774-0.097s-0.518 0.089-0.753 0.206l-3.109 1.554-6.549-1.732c-0.168-0.044-0.344-0.044-0.512 0l-6.549 1.732-3.109-1.554c-0.235-0.118-0.491-0.188-0.753-0.206s-0.525 0.014-0.774 0.097c-0.249 0.083-0.48 0.214-0.678 0.386s-0.361 0.382-0.479 0.616l-3.19 6.381c-0.118 0.235-0.188 0.491-0.206 0.753s0.014 0.525 0.097 0.774c0.083 0.249 0.214 0.48 0.386 0.678s0.382 0.361 0.616 0.479l3.375 1.689 6.936 4.954c0.102 0.073 0.217 0.126 0.339 0.156l8 2c0.168 0.042 0.343 0.040 0.51-0.006s0.318-0.134 0.44-0.256l6.884-6.885 3.302-1.651c0.474-0.237 0.835-0.653 1.002-1.156s0.129-1.052-0.108-1.526h0.001zM24.926 17.66l-4.301-3.445c-0.193-0.154-0.436-0.232-0.682-0.218s-0.479 0.119-0.653 0.294c-2.226 2.242-4.708 1.959-6.29 0.959l5.405-5.25h3.976l3.401 6.801-0.856 0.859zM5.191 8l2.559 1.278-3.196 6.381-2.554-1.276 3.191-6.383zM19.691 22.891l-7.264-1.815-6.15-4.392 3.5-7 6.222-1.649 1.225 0.324-5.635 5.471c-0.212 0.212-0.373 0.468-0.473 0.751s-0.134 0.584-0.101 0.881c0.033 0.298 0.132 0.584 0.29 0.838s0.371 0.47 0.624 0.631c2.57 1.641 5.671 1.375 8.114-0.625l3.456 2.776-3.809 3.809zM27.441 15.658l-3.19-6.375 2.557-1.283 3.191 6.383-2.559 1.275zM16.472 27.241c-0.054 0.216-0.179 0.408-0.354 0.545s-0.392 0.212-0.615 0.212c-0.082 0-0.164-0.010-0.244-0.030l-5.209-1.303c-0.122-0.030-0.237-0.083-0.339-0.156l-3.294-2.352c-0.203-0.159-0.336-0.39-0.372-0.645s0.027-0.514 0.177-0.723c0.15-0.209 0.375-0.353 0.628-0.401s0.515 0.004 0.731 0.144l3.139 2.242 5.030 1.255c0.257 0.064 0.478 0.228 0.615 0.456s0.177 0.5 0.113 0.757l-0.005-0.001z"></path>
        </symbol>
        <symbol id="icon-check-circle" viewBox="0 0 32 32">
            <path d="M27.999 14.781v1.227c-0.001 3.313-1.345 6.31-3.52 8.483s-5.173 3.512-8.486 3.509-6.312-1.345-8.483-3.52-3.512-5.172-3.511-8.486 1.345-6.31 3.52-8.483 5.173-3.512 8.486-3.511c1.773 0.001 3.448 0.385 4.865 1.033 0.669 0.307 1.461 0.011 1.767-0.659s0.011-1.461-0.659-1.767c-1.769-0.808-3.821-1.273-5.972-1.275-4.049-0.003-7.718 1.639-10.373 4.289s-4.298 6.32-4.301 10.369 1.639 7.718 4.289 10.373 6.318 4.3 10.368 4.301 7.718-1.639 10.373-4.289 4.3-6.318 4.303-10.369v-1.227c0-0.736-0.597-1.333-1.333-1.333s-1.333 0.597-1.333 1.333zM28.39 4.399l-12.39 12.402-3.057-3.056c-0.521-0.521-1.365-0.521-1.885 0s-0.521 1.365 0 1.885l4 4c0.521 0.521 1.365 0.52 1.887 0l13.333-13.346c0.52-0.521 0.52-1.365-0.001-1.885s-1.365-0.52-1.885 0.001z"></path>
        </symbol>
        <symbol id="icon-linkedin" viewBox="0 0 32 32">
            <path d="M12 12h5.535v2.837h0.079c0.77-1.381 2.655-2.837 5.464-2.837 5.842 0 6.922 3.637 6.922 8.367v9.633h-5.769v-8.54c0-2.037-0.042-4.657-3.001-4.657-3.005 0-3.463 2.218-3.463 4.509v8.688h-5.767v-18z"></path>
            <path d="M2 12h6v18h-6v-18z"></path>
            <path d="M8 7c0 1.657-1.343 3-3 3s-3-1.343-3-3c0-1.657 1.343-3 3-3s3 1.343 3 3z"></path>
        </symbol>
        <symbol id="icon-whatsapp" viewBox="0 0 32 32">
            <path d="M27.281 4.65c-2.994-3-6.975-4.65-11.219-4.65-8.738 0-15.85 7.112-15.85 15.856 0 2.794 0.731 5.525 2.119 7.925l-2.25 8.219 8.406-2.206c2.319 1.262 4.925 1.931 7.575 1.931h0.006c0 0 0 0 0 0 8.738 0 15.856-7.113 15.856-15.856 0-4.238-1.65-8.219-4.644-11.219zM16.069 29.050v0c-2.369 0-4.688-0.637-6.713-1.837l-0.481-0.288-4.987 1.306 1.331-4.863-0.313-0.5c-1.325-2.094-2.019-4.519-2.019-7.012 0-7.269 5.912-13.181 13.188-13.181 3.519 0 6.831 1.375 9.319 3.862 2.488 2.494 3.856 5.8 3.856 9.325-0.006 7.275-5.919 13.188-13.181 13.188zM23.294 19.175c-0.394-0.2-2.344-1.156-2.706-1.288s-0.625-0.2-0.894 0.2c-0.262 0.394-1.025 1.288-1.256 1.556-0.231 0.262-0.462 0.3-0.856 0.1s-1.675-0.619-3.188-1.969c-1.175-1.050-1.975-2.35-2.206-2.744s-0.025-0.613 0.175-0.806c0.181-0.175 0.394-0.463 0.594-0.694s0.262-0.394 0.394-0.662c0.131-0.262 0.069-0.494-0.031-0.694s-0.894-2.15-1.219-2.944c-0.319-0.775-0.65-0.669-0.894-0.681-0.231-0.012-0.494-0.012-0.756-0.012s-0.694 0.1-1.056 0.494c-0.363 0.394-1.387 1.356-1.387 3.306s1.419 3.831 1.619 4.1c0.2 0.262 2.794 4.269 6.769 5.981 0.944 0.406 1.681 0.65 2.256 0.837 0.95 0.3 1.813 0.256 2.494 0.156 0.762-0.113 2.344-0.956 2.675-1.881s0.331-1.719 0.231-1.881c-0.094-0.175-0.356-0.275-0.756-0.475z"></path>
        </symbol>
        <symbol id="icon-wechat" viewBox="0 0 32 32">
            <path d="M31.388 16.997c-0.812-1.84-2.344-3.301-4.123-4.201-3.139-1.589-7.041-1.58-10.172 0.040-2.175 1.116-3.991 3.116-4.505 5.549-0.424 1.792-0.044 3.721 0.907 5.281 1.415 2.349 3.972 3.849 6.628 4.331 1.924 0.391 3.915 0.159 5.784-0.38 1.123 0.435 2.123 1.139 3.211 1.661-0.281-0.943-0.581-1.875-0.901-2.803 1.221-0.867 2.328-1.948 2.992-3.305 0.992-1.887 1.052-4.228 0.18-6.173zM18.156 4.376c-3.327-1.872-7.469-2.153-11.048-0.86-2.352 0.847-4.48 2.42-5.795 4.56-1.193 1.933-1.64 4.344-1.065 6.556 0.577 2.453 2.281 4.511 4.349 5.884-0.4 1.133-0.78 2.265-1.14 3.407 1.3-0.68 2.6-1.391 3.901-2.081 1.56 0.5 3.22 0.745 4.88 0.691-0.44-1.257-0.54-2.62-0.34-3.935 0.3-1.828 1.3-3.5 2.659-4.739 2.301-2.153 5.561-3.061 8.661-2.841-0.581-2.847-2.581-5.252-5.099-6.64zM20.467 17.695c-0.279 0.869-1.541 1.131-2.153 0.469-0.675-0.612-0.412-1.891 0.473-2.164 0.979-0.413 2.109 0.716 1.68 1.695zM26.86 17.817c-0.341 0.781-1.521 0.964-2.101 0.36-0.279-0.255-0.36-0.639-0.459-0.973 0.139-0.611 0.56-1.244 1.24-1.273 0.94-0.131 1.781 1.031 1.3 1.888zM17.32 9.212c0.011 1.281-1.7 2.081-2.66 1.212-0.996-0.713-0.713-2.449 0.456-2.808 1.047-0.42 2.284 0.459 2.201 1.58zM9.241 9.537c-0.229 1.113-1.721 1.651-2.595 0.904-1.012-0.713-0.728-2.481 0.46-2.841 1.164-0.448 2.487 0.733 2.135 1.937z"></path>
        </symbol>
        <symbol id="icon-telegram" viewBox="0 0 32 32">
            <path d="M16 0c-8.838 0-16 7.162-16 16s7.162 16 16 16 16-7.163 16-16-7.163-16-16-16zM23.863 10.969l-2.625 12.369c-0.181 0.881-0.712 1.087-1.45 0.681l-4-2.956-1.919 1.869c-0.225 0.219-0.4 0.4-0.8 0.4-0.519 0-0.431-0.194-0.606-0.688l-1.363-4.475-3.956-1.231c-0.856-0.262-0.862-0.85 0.194-1.269l15.412-5.95c0.7-0.319 1.381 0.169 1.113 1.25z"></path>
        </symbol>
        <symbol id="icon-location" viewBox="0 0 31 32">
            <path d="M15.36 31.242c0 0-10.752-14.024-10.752-19.968 0-5.938 4.814-10.752 10.752-10.752s10.752 4.814 10.752 10.752c0 5.944-10.752 19.968-10.752 19.968zM15.36 14.346c1.697 0 3.072-1.375 3.072-3.072s-1.375-3.072-3.072-3.072c-1.697 0-3.072 1.375-3.072 3.072s1.375 3.072 3.072 3.072z"></path>
        </symbol>
        <symbol id="icon-user" viewBox="0 0 32 32">
            <path d="M8 8c0-4.418 3.582-8 8-8s8 3.582 8 8v0 3.2c0 4.418-3.582 8-8 8s-8-3.582-8-8v0-3.2zM0 26.688c4.576-2.696 10.081-4.288 15.959-4.288 0.015 0 0.029 0 0.044 0h-0.002c5.824 0 11.296 1.552 16 4.288v5.312h-32v-5.312z"></path>
        </symbol>
        <symbol id="icon-phone" viewBox="0 0 32 32">
            <path d="M32 29.36v1.040c0 0.884-0.716 1.6-1.6 1.6v0h-3.2c-15.022 0-27.2-12.178-27.2-27.2v0-3.2c0-0.884 0.716-1.6 1.6-1.6v0h6.4c0.884 0 1.6 0.716 1.6 1.6v0 6.4c0 0.896-0.496 2.096-1.12 2.72l-3.424 3.424c2.432 5.76 7.040 10.368 12.8 12.8l3.392-3.392c0.64-0.64 1.84-1.136 2.72-1.136h6.432c0.877 0.009 1.584 0.722 1.584 1.6 0 0 0 0 0 0v0 5.36z"></path>
        </symbol>
        <symbol id="icon-email" viewBox="0 0 32 32">
            <path d="M28.8 3.2c1.767 0 3.2 1.433 3.2 3.2v0 19.2c0 1.767-1.433 3.2-3.2 3.2v0h-25.6c-1.767 0-3.2-1.433-3.2-3.2v0-19.2c0-1.76 1.44-3.2 3.2-3.2h25.6zM21.808 17.76l10.192 7.84v-3.2l-8.192-6.24 8.192-6.56v-3.2l-16 12.8-16-12.8v3.2l8.192 6.56-8.192 6.24v3.2l10.192-7.84 5.808 4.64 5.808-4.64z"></path>
        </symbol>
        <symbol id="icon-checkmark" viewBox="0 0 32 32">
            <path d="M0 17.6l3.2-3.2 8 8 17.6-17.6 3.2 3.2-20.8 20.8z"></path>
        </symbol>
        <symbol id="icon-close" viewBox="0 0 32 32">
            <path d="M16 13.738l-11.314-11.314-2.262 2.262 11.314 11.314-11.314 11.314 2.262 2.262 11.314-11.314 11.314 11.314 2.262-2.262-11.314-11.314 11.314-11.314-2.262-2.262-11.314 11.314z"></path>
        </symbol>
        <symbol id="icon-send" viewBox="0 0 32 32">
            <path d="M0 0l32 16-32 16v-32zM0 12.8v6.4l16-3.2-16-3.2z"></path>
        </symbol>
    </defs>
</svg>