<svg aria-hidden="true" style="position: absolute; width: 0; height: 0; overflow: hidden;" version="1.1" xmlns="http://www.w3.org/2000/svg" xmlns:xlink="http://www.w3.org/1999/xlink">
    <defs>
        <symbol id="icon-logo" viewBox="0 0 27 32">
            <path d="M0.122 12.853c0.020-0.247 0.025-0.47 0.068-0.684 0.018-0.090 0.113-0.226 0.185-0.233 0.801-0.084 1.596-0.091 2.404 0.035 1.497 0.233 2.865 0.794 4.183 1.492 0.973 0.516 1.887 1.128 2.722 1.85 1.057 0.914 2.021 1.911 2.754 3.102 0.321 0.521 0.567 1.088 0.833 1.606 0.138-0.324 0.253-0.736 0.475-1.081 0.436-0.676 0.904-1.335 1.41-1.961 0.393-0.486 0.827-0.952 1.306-1.352 0.726-0.607 1.476-1.197 2.272-1.707 0.989-0.634 2.062-1.131 3.178-1.51 1.192-0.405 2.42-0.623 3.688-0.543 0.177 0.011 0.359 0.020 0.528 0.067 0.077 0.022 0.177 0.13 0.184 0.206 0.037 0.423 0.077 0.849 0.064 1.272-0.049 1.663-0.266 3.3-0.922 4.849-0.387 0.914-0.895 1.761-1.556 2.51-0.346 0.393-0.666 0.819-1.060 1.158-0.824 0.707-1.682 1.377-2.543 2.041-0.873 0.674-1.773 1.314-2.647 1.986-0.382 0.294-0.747 0.617-1.089 0.957-1.041 1.036-1.733 2.294-2.274 3.638-0.129 0.32-0.205 0.661-0.306 1.017-0.465 0.025-0.93 0.025-1.424 0-0.188-0.477-0.334-0.935-0.509-1.381-0.452-1.148-1.071-2.205-1.93-3.096-0.547-0.567-1.146-1.094-1.771-1.578-1.172-0.907-2.374-1.778-3.574-2.649-0.911-0.662-1.704-1.445-2.388-2.325-0.773-0.996-1.364-2.101-1.712-3.32-0.29-1.016-0.483-2.047-0.49-3.107-0.001-0.11-0.038-0.219-0.058-0.328 0-0.301 0-0.602 0-0.931zM22.543 14.864c-0.813 0.18-1.573 0.492-2.294 0.902-1.485 0.845-2.733 1.96-3.685 3.364-0.435 0.641-0.794 1.357-1.053 2.085-0.3 0.842-0.456 1.734-0.666 2.606-0.097 0.405-0.174 0.814-0.259 1.222 0.025 0.018 0.050 0.037 0.075 0.055 0.301-0.228 0.598-0.46 0.903-0.683 1.368-1 2.743-1.991 4.107-2.997 0.96-0.708 1.734-1.591 2.421-2.558 0.665-0.937 1.086-1.982 1.426-3.063 0.105-0.334 0.149-0.686 0.236-1.103-0.441 0.065-0.799 0.118-1.211 0.171zM10.951 21.072c-0.273-0.827-0.719-1.558-1.238-2.255-0.558-0.75-1.191-1.429-1.923-2.005-0.862-0.679-1.783-1.273-2.83-1.65-0.696-0.251-1.4-0.44-2.153-0.415-0.010 0.045-0.025 0.073-0.021 0.099 0.016 0.095 0.040 0.189 0.058 0.284 0.24 1.258 0.719 2.423 1.412 3.5 0.589 0.913 1.284 1.739 2.14 2.42 0.734 0.583 1.472 1.16 2.222 1.722 0.826 0.618 1.665 1.22 2.503 1.822 0.242 0.174 0.501 0.325 0.812 0.526-0.16-0.725-0.286-1.358-0.441-1.984-0.167-0.674-0.361-1.342-0.542-2.062z"></path>
            <path d="M13.291 0.413c0.527 0.432 1.070 0.829 1.531 1.304 0.714 0.735 1.322 1.557 1.818 2.459 0.559 1.015 0.974 2.082 1.185 3.217 0.155 0.833 0.177 1.674 0.098 2.527-0.114 1.233-0.486 2.377-1.111 3.429-0.484 0.815-1.033 1.597-1.608 2.353s-1.219 1.463-1.833 2.19c-0.031 0.037-0.071 0.065-0.121 0.109-0.341-0.373-0.686-0.723-0.999-1.099-0.476-0.571-0.935-1.156-1.392-1.742-0.974-1.252-1.745-2.617-2.123-4.158-0.227-0.927-0.252-1.879-0.158-2.843 0.127-1.303 0.512-2.517 1.108-3.667 0.447-0.863 0.999-1.66 1.645-2.399 0.549-0.628 1.162-1.169 1.853-1.659 0.033-0.020 0.059-0.020 0.107-0.020zM14.703 6.083c-0.338-0.761-0.723-1.486-1.472-1.962-0.209 0.186-0.446 0.346-0.615 0.559-0.783 0.983-1.192 2.128-1.288 3.359-0.085 1.098-0.013 2.198 0.346 3.263 0.323 0.957 0.775 1.825 1.609 2.523 0.264-0.316 0.545-0.607 0.774-0.934 0.759-1.087 1.062-2.325 1.122-3.624 0.025-0.543 0.015-1.096-0.067-1.631-0.078-0.51-0.269-1.004-0.41-1.552z"></path>
            <path d="M18.076 27.021c1.243-1.279 2.673-2.27 4.267-3.018 0.874-0.41 1.787-0.735 2.768-0.807 0.233-0.017 0.465-0.052 0.726-0.081-0.001 0.622-0.163 1.156-0.362 1.683-0.555 1.475-1.51 2.671-2.675 3.707-0.728 0.647-1.536 1.191-2.402 1.652-1.126 0.599-2.315 1.007-3.565 1.245-0.3 0.057-0.614 0.048-0.921 0.070-0.126 0.009-0.252 0.020-0.442 0.035 0.341-1.79 1.331-3.205 2.605-4.487z"></path>
            <path d="M4.355 24.097c1.075 0.528 2.070 1.151 2.969 1.9 1.303 1.087 2.446 2.323 3.176 3.873 0.243 0.516 0.383 1.079 0.582 1.655-0.453-0.043-0.813-0.078-1.174-0.112-0.863-0.081-1.681-0.342-2.483-0.647-1.073-0.407-2.073-0.962-2.981-1.655-0.787-0.602-1.504-1.282-2.121-2.070-0.625-0.798-1.132-1.649-1.421-2.617-0.121-0.405-0.193-0.824-0.299-1.289 1.381 0.012 2.572 0.42 3.752 0.962z"></path>
        </symbol>
        <symbol id="icon-menu" viewBox="0 0 32 32">
            <path d="M0 26.667v-3.556h32v3.556h-32zM0 17.778v-3.556h32v3.556h-32zM0 8.889v-3.556h32v3.556h-32z"></path>
        </symbol>
        <symbol id="icon-close" viewBox="0 0 32 32">
            <path d="M3.2 32l-3.2-3.2 12.8-12.8-12.8-12.8 3.2-3.2 12.8 12.8 12.8-12.8 3.2 3.2-12.8 12.8 12.8 12.8-3.2 3.2-12.8-12.8-12.8 12.8z"></path>
        </symbol>
        <symbol id="icon-globe" viewBox="0 0 32 32">
            <path d="M16 32c-2.213 0-4.293-0.42-6.24-1.261s-3.64-1.98-5.080-3.419-2.58-3.132-3.419-5.080c-0.839-1.948-1.26-4.028-1.261-6.24s0.419-4.292 1.261-6.24c0.842-1.948 1.981-3.641 3.419-5.080s3.131-2.579 5.080-3.419c1.949-0.841 4.029-1.261 6.24-1.261s4.291 0.42 6.24 1.261c1.949 0.841 3.642 1.98 5.080 3.419s2.578 3.132 3.421 5.080c0.843 1.948 1.262 4.028 1.259 6.24s-0.423 4.292-1.261 6.24c-0.837 1.948-1.977 3.641-3.419 5.080s-3.135 2.579-5.080 3.421-4.025 1.261-6.24 1.259zM16 28.8c3.573 0 6.6-1.24 9.080-3.72s3.72-5.507 3.72-9.080c0-0.187-0.006-0.38-0.019-0.581s-0.020-0.367-0.021-0.499c-0.133 0.773-0.493 1.413-1.080 1.92s-1.28 0.76-2.080 0.76h-3.2c-0.88 0-1.633-0.313-2.259-0.939s-0.94-1.38-0.941-2.261v-1.6h-6.4v-3.2c0-0.88 0.314-1.633 0.941-2.259s1.38-0.94 2.259-0.941h1.6c0-0.613 0.167-1.153 0.501-1.619s0.74-0.846 1.219-1.141c-0.533-0.133-1.073-0.24-1.619-0.32s-1.113-0.12-1.701-0.12c-3.573 0-6.6 1.24-9.080 3.72s-3.72 5.507-3.72 9.080h8c1.76 0 3.267 0.627 4.52 1.88s1.88 2.76 1.88 4.52v1.6h-4.8v4.4c0.533 0.133 1.060 0.234 1.581 0.301s1.060 0.1 1.619 0.099z"></path>
        </symbol>
        <symbol id="icon-handshake" viewBox="0 0 32 32">
            <path d="M31.79 12.488l-3.19-6.383c-0.118-0.235-0.28-0.444-0.479-0.617s-0.429-0.303-0.678-0.386-0.512-0.116-0.774-0.097c-0.262 0.019-0.518 0.089-0.753 0.206l-3.109 1.554-6.55-1.733c-0.168-0.044-0.344-0.044-0.513 0l-6.55 1.733-3.109-1.554c-0.235-0.118-0.491-0.188-0.753-0.206s-0.525 0.014-0.774 0.097c-0.249 0.083-0.48 0.214-0.678 0.386s-0.361 0.382-0.479 0.617l-3.19 6.382c-0.118 0.235-0.188 0.491-0.206 0.753s0.014 0.525 0.097 0.774 0.214 0.48 0.386 0.678c0.172 0.198 0.382 0.361 0.617 0.479l3.375 1.689 6.937 4.954c0.102 0.073 0.217 0.126 0.339 0.156l8.001 2c0.168 0.042 0.343 0.040 0.51-0.006s0.318-0.134 0.44-0.256l6.885-6.886 3.303-1.651c0.474-0.237 0.835-0.653 1.002-1.156s0.129-1.052-0.108-1.526h0.001zM24.928 16.66l-4.302-3.445c-0.193-0.154-0.436-0.232-0.682-0.218s-0.479 0.119-0.653 0.294c-2.227 2.243-4.708 1.959-6.291 0.959l5.406-5.251h3.977l3.402 6.802-0.856 0.859zM5.191 6.999l2.559 1.278-3.197 6.382-2.554-1.276 3.192-6.383zM19.693 21.892l-7.265-1.815-6.151-4.393 3.5-7.001 6.223-1.649 1.225 0.324-5.636 5.472c-0.212 0.212-0.373 0.468-0.473 0.751s-0.134 0.584-0.101 0.881 0.132 0.584 0.29 0.839c0.158 0.254 0.371 0.47 0.624 0.631 2.57 1.641 5.672 1.375 8.115-0.625l3.457 2.777-3.809 3.809zM27.444 14.658l-3.19-6.376 2.558-1.283 3.192 6.383-2.559 1.275zM16.473 26.243c-0.054 0.216-0.179 0.408-0.354 0.545s-0.392 0.212-0.615 0.212c-0.082 0-0.164-0.010-0.244-0.030l-5.209-1.303c-0.122-0.030-0.237-0.083-0.339-0.156l-3.294-2.353c-0.203-0.159-0.336-0.39-0.372-0.645s0.027-0.514 0.177-0.724c0.15-0.209 0.375-0.353 0.628-0.401s0.515 0.004 0.731 0.144l3.139 2.243 5.031 1.255c0.257 0.064 0.478 0.228 0.615 0.456s0.177 0.5 0.113 0.757l-0.005-0.001z"></path>
        </symbol>
        <symbol id="icon-international" viewBox="0 0 32 32">
            <path d="M16 28.69c-0.248 0.001-0.495-0.016-0.74-0.049-2.267-3.634-3.523-7.808-3.637-12.089h19.771c0.026-0.365 0.055-0.732 0.055-1.103 0-3.055-0.906-6.042-2.603-8.583s-4.11-4.521-6.933-5.69c-2.823-1.169-5.929-1.475-8.926-0.879s-5.749 2.067-7.91 4.228c-2.16 2.16-3.632 4.913-4.228 7.91s-0.29 6.103 0.879 8.926c1.169 2.823 3.149 5.235 5.69 6.933s5.527 2.603 8.583 2.603v-2.207zM29.186 14.345h-6.606c-0.118-4.060-1.156-8.041-3.038-11.641 2.603 0.726 4.921 2.23 6.645 4.311s2.77 4.638 2.999 7.331zM16.739 2.255c2.267 3.634 3.523 7.808 3.638 12.089h-8.755c0.115-4.282 1.371-8.455 3.638-12.089 0.492-0.064 0.989-0.064 1.481 0zM12.459 2.702c-1.882 3.6-2.921 7.582-3.039 11.642h-6.606c0.229-2.692 1.276-5.25 2.999-7.331s4.042-3.585 6.645-4.311zM2.814 16.552h6.606c0.118 4.061 1.156 8.041 3.038 11.642-2.603-0.726-4.921-2.23-6.645-4.311s-2.77-4.639-2.999-7.331z"></path>
            <path d="M25.931 25.379l5.517 2.207v-2.207l-5.517-2.759v-2.759c0-0.293-0.116-0.573-0.323-0.78s-0.487-0.323-0.78-0.323-0.573 0.116-0.78 0.323c-0.207 0.207-0.323 0.487-0.323 0.78v2.759l-5.517 2.759v2.207l5.517-2.207v3.862l-2.207 1.655v1.103l3.31-1.103 3.31 1.103v-1.103l-2.207-1.655v-3.862z"></path>
        </symbol>
        <symbol id="icon-truck" viewBox="0 0 32 32">
            <path d="M9.245 27.378c-1.185 0-2.193-0.415-3.022-1.244s-1.244-1.837-1.244-3.022h-3.556l0.64-2.845h4.018c0.403-0.45 0.877-0.8 1.422-1.048s1.126-0.373 1.742-0.374c0.616-0.001 1.197 0.124 1.742 0.374s1.019 0.6 1.422 1.048h5.938l2.987-12.8h-15.573l0.142-0.604c0.142-0.664 0.468-1.203 0.977-1.617s1.108-0.622 1.796-0.623h16.213l-1.316 5.689h4.16l4.267 5.689-1.422 7.111h-2.844c0 1.185-0.415 2.193-1.244 3.022s-1.837 1.244-3.022 1.244c-1.185 0-2.193-0.415-3.022-1.244s-1.244-1.837-1.244-3.022h-5.689c0 1.185-0.415 2.193-1.244 3.022s-1.837 1.244-3.022 1.244zM21.938 17.422h6.862l0.142-0.747-2.631-3.52h-3.378l-0.996 4.267zM21.262 7.716l0.071-0.249-2.987 12.8 0.071-0.249 1.209-5.191 1.636-7.111zM0 17.884l0.711-2.845h7.822l-0.711 2.845h-7.822zM2.845 12.693l0.711-2.844h9.244l-0.711 2.844h-9.244zM9.245 24.533c0.403 0 0.741-0.137 1.014-0.41s0.409-0.611 0.408-1.013c-0.001-0.402-0.137-0.74-0.41-1.013s-0.61-0.41-1.013-0.41c-0.403 0-0.741 0.137-1.013 0.41s-0.409 0.611-0.41 1.013c-0.001 0.402 0.136 0.74 0.41 1.014s0.612 0.41 1.013 0.408zM23.467 24.533c0.403 0 0.741-0.137 1.014-0.41s0.409-0.611 0.408-1.013c-0.001-0.402-0.137-0.74-0.41-1.013s-0.61-0.41-1.013-0.41-0.741 0.137-1.013 0.41c-0.272 0.273-0.409 0.611-0.41 1.013s0.136 0.74 0.41 1.014c0.274 0.274 0.612 0.41 1.013 0.408z"></path>
        </symbol>
        <symbol id="icon-figures" viewBox="0 0 32 32">
            <path d="M17.737 3.909c0-1.036 0.412-2.031 1.145-2.763s1.727-1.145 2.763-1.145h6.079c1.037 0 2.031 0.412 2.763 1.145s1.145 1.727 1.145 2.763v6.079c0 1.037-0.412 2.031-1.145 2.763s-1.727 1.145-2.763 1.145h-6.079c-1.036 0-2.031-0.412-2.763-1.145s-1.145-1.727-1.145-2.763v-6.079zM21.645 2.607c-0.345 0-0.677 0.137-0.921 0.382s-0.382 0.576-0.382 0.921v6.079c0 0.719 0.584 1.303 1.303 1.303h6.079c0.346 0 0.677-0.137 0.921-0.382s0.382-0.576 0.382-0.921v-6.079c0-0.345-0.137-0.677-0.382-0.921s-0.575-0.382-0.921-0.382h-6.079zM9.834 1.561c-0.233-0.469-0.592-0.863-1.037-1.139s-0.958-0.422-1.482-0.422c-0.523 0-1.037 0.146-1.482 0.422s-0.804 0.67-1.037 1.139l-4.12 8.191c-0.952 1.898 0.412 4.144 2.519 4.144h8.24c2.107 0 3.472-2.246 2.518-4.144l-4.12-8.191zM7.124 2.732c0.035-0.069 0.066-0.090 0.082-0.099 0.034-0.018 0.071-0.027 0.109-0.026 0.049 0 0.087 0.014 0.109 0.026 0.016 0.009 0.045 0.030 0.082 0.099l4.12 8.191c0.023 0.040 0.034 0.086 0.031 0.132-0.003 0.043-0.016 0.084-0.037 0.122s-0.052 0.069-0.088 0.092c-0.030 0.017-0.063 0.025-0.097 0.023h-8.24c-0.034 0.002-0.068-0.006-0.097-0.023-0.036-0.024-0.065-0.055-0.087-0.092s-0.034-0.079-0.037-0.121c-0.003-0.046 0.007-0.092 0.030-0.132l4.12-8.191zM2.973 24.318c0-1.152 0.458-2.256 1.272-3.071s1.919-1.272 3.071-1.272c1.152 0 2.256 0.457 3.071 1.272s1.272 1.919 1.272 3.071c0 1.152-0.457 2.256-1.272 3.070s-1.919 1.272-3.071 1.272c-1.152 0-2.256-0.457-3.071-1.272s-1.272-1.919-1.272-3.070zM7.315 17.371c-1.843 0-3.61 0.732-4.913 2.035s-2.035 3.070-2.035 4.913c0 1.843 0.732 3.61 2.035 4.913s3.070 2.035 4.913 2.035c1.843 0 3.61-0.732 4.913-2.035s2.035-3.070 2.035-4.913c0-1.843-0.732-3.61-2.035-4.913s-3.070-2.035-4.913-2.035zM25.77 16.928c-0.33-0.191-0.704-0.291-1.085-0.291s-0.756 0.1-1.086 0.291l-4.773 2.755c-0.33 0.191-0.604 0.465-0.795 0.795s-0.291 0.705-0.291 1.086v5.509c0 0.776 0.415 1.494 1.085 1.881l4.773 2.755c0.33 0.191 0.704 0.291 1.086 0.291s0.755-0.1 1.085-0.291l4.773-2.755c0.33-0.191 0.604-0.465 0.795-0.795s0.291-0.705 0.291-1.086v-5.509c0-0.776-0.415-1.494-1.085-1.881l-4.773-2.755zM20.346 21.814l4.339-2.505 4.339 2.505v5.009l-4.339 2.505-4.339-2.505v-5.009z"></path>
        </symbol>
        <symbol id="icon-check-circle" viewBox="0 0 32 32">
            <path d="M29.090 14.677v1.331c-0.001 3.597-1.468 6.85-3.84 9.208s-5.644 3.812-9.258 3.809c-3.614-0.003-6.886-1.46-9.254-3.821s-3.831-5.614-3.83-9.212c0.001-3.598 1.468-6.85 3.84-9.208s5.643-3.812 9.258-3.811c1.935 0.001 3.761 0.418 5.308 1.122 0.73 0.333 1.594 0.011 1.927-0.715s0.012-1.586-0.719-1.918c-1.93-0.877-4.169-1.382-6.515-1.384-4.417-0.003-8.42 1.779-11.316 4.656s-4.689 6.86-4.692 11.255c-0.003 4.395 1.787 8.378 4.679 11.26s6.893 4.667 11.31 4.669c4.417 0.001 8.42-1.779 11.316-4.656s4.691-6.859 4.694-11.256v-1.331c0-0.799-0.652-1.447-1.455-1.447s-1.455 0.648-1.455 1.447h0.001zM29.517 3.407l-13.517 13.462-3.335-3.317c-0.569-0.566-1.489-0.566-2.057 0s-0.569 1.482 0 2.046l4.364 4.342c0.569 0.566 1.489 0.564 2.058 0l14.545-14.487c0.567-0.566 0.567-1.482-0.001-2.046s-1.489-0.564-2.057 0.001v-0.001z"></path>
        </symbol>
        <symbol id="icon-headset" viewBox="0 0 32 32">
            <path d="M16 0c-8.822 0-16 7.178-16 16v6.629c0 1.638 1.435 2.971 3.2 2.971h1.6c0.424 0 0.831-0.169 1.131-0.469s0.469-0.707 0.469-1.131v-8.229c0-0.424-0.169-0.831-0.469-1.131s-0.707-0.469-1.131-0.469h-1.453c0.89-6.192 6.218-10.971 12.653-10.971s11.763 4.779 12.653 10.971h-1.453c-0.424 0-0.831 0.169-1.131 0.469s-0.469 0.707-0.469 1.131v9.829c0 1.765-1.435 3.2-3.2 3.2h-3.2v-1.6h-6.4v4.8h9.6c3.53 0 6.4-2.87 6.4-6.4 1.765 0 3.2-1.333 3.2-2.971v-6.629c0-8.822-7.178-16-16-16z"></path>
        </symbol>
        <symbol id="icon-gears" viewBox="0 0 32 32">
            <path d="M9.831 17.844h0.431l0.030 0.045c0.803 0 1.368 0 1.933-0.446 0.535-0.461 0.639-1.071 0.758-1.784l0.134-0.833 0.146-0.083c0.137-0.076 0.272-0.158 0.404-0.244l0.773 0.283c0.639 0.253 1.249 0.491 1.993 0.253 0.647-0.235 0.946-0.732 1.34-1.389l0.015-0.024 0.297-0.506c0.342-0.595 0.639-1.115 0.506-1.74-0.119-0.684-0.565-1.056-1.19-1.561l-0.669-0.55v-0.625l0.717-0.58c0.571-0.468 1.023-0.84 1.126-1.472 0.149-0.68-0.161-1.213-0.544-1.877l-0.006-0.012-0.238-0.402c-0.387-0.669-0.699-1.19-1.368-1.428-0.654-0.223-1.234-0.015-1.948 0.253l-0.788 0.282c-0.178-0.119-0.372-0.223-0.564-0.327l-0.134-0.833c-0.119-0.729-0.223-1.338-0.773-1.799-0.535-0.446-1.145-0.446-1.918-0.446h-0.431c-0.788 0-1.368 0-1.933 0.446-0.535 0.446-0.639 1.041-0.758 1.784l-0.149 0.833c-0.193 0.104-0.387 0.208-0.565 0.327l-0.788-0.297h-0.004c-0.727-0.268-1.291-0.476-1.96-0.253-0.669 0.238-0.981 0.758-1.368 1.428l-0.282 0.476c-0.357 0.61-0.654 1.145-0.52 1.77 0.119 0.699 0.565 1.071 1.19 1.576l0.669 0.55v0.595l-0.714 0.58c-0.58 0.461-1.041 0.833-1.145 1.472-0.149 0.684 0.149 1.204 0.55 1.903l0.253 0.431 0.018 0.030c0.378 0.625 0.677 1.12 1.365 1.368 0.65 0.217 1.258-0.015 1.863-0.247l0.843-0.318c0.193 0.119 0.372 0.223 0.565 0.327l0.164 0.907c0.104 0.669 0.208 1.264 0.788 1.755 0.535 0.401 1.1 0.401 1.888 0.401zM9.831 15.613h-0.431l0.059-0.030-0.010-0.079c-0.013-0.103-0.029-0.206-0.049-0.308l-0.253-1.413c-0.032-0.184-0.11-0.357-0.227-0.503s-0.269-0.259-0.442-0.33c-0.402-0.164-0.773-0.372-1.145-0.654-0.297-0.238-0.699-0.297-1.056-0.164l-1.353 0.506c-0.058 0.018-0.127 0.043-0.207 0.076-0.065 0.027-0.134 0.054-0.193 0.074-0.074-0.104-0.149-0.223-0.223-0.357l-0.283-0.476c-0.045-0.089-0.089-0.164-0.134-0.238l0.283-0.238 1.145-0.922c0.312-0.253 0.476-0.654 0.402-1.056-0.045-0.208-0.045-0.416-0.045-0.61s0.015-0.402 0.045-0.595c0.030-0.196 0.009-0.396-0.061-0.581s-0.188-0.349-0.34-0.475l-1.268-1.011c-0.062-0.051-0.125-0.1-0.175-0.149l0.045-0.076c0.037-0.064 0.081-0.139 0.134-0.223l0.238-0.402c0.039-0.074 0.089-0.158 0.135-0.235l0.074-0.122 0.208 0.074c0.069 0.027 0.139 0.052 0.208 0.074l1.338 0.491c0.342 0.134 0.744 0.074 1.056-0.164 0.372-0.282 0.744-0.491 1.13-0.639 0.357-0.149 0.61-0.461 0.684-0.848l0.268-1.502c0.006-0.048 0.013-0.092 0.021-0.134 0.012-0.054 0.020-0.108 0.022-0.164h1.294c0.009 0.068 0.022 0.149 0.036 0.222l0.024 0.15 0.238 1.413c0.074 0.387 0.327 0.699 0.699 0.848 0.416 0.164 0.788 0.387 1.115 0.639 0.297 0.238 0.714 0.297 1.071 0.164l1.338-0.491c0.134-0.045 0.297-0.104 0.416-0.149l0.037 0.065c0.052 0.091 0.112 0.196 0.171 0.291l0.268 0.461c0.059 0.104 0.104 0.178 0.149 0.253l-0.123 0.1-0.174 0.138-1.13 0.922c-0.297 0.238-0.446 0.639-0.402 1.011l0.016 0.199c0.015 0.149 0.030 0.302 0.030 0.455 0 0.201-0.025 0.387-0.051 0.595l-0.010 0.074c-0.045 0.387 0.104 0.758 0.402 0.996l1.413 1.16-0.045 0.076c-0.037 0.064-0.081 0.139-0.134 0.223l-0.253 0.431v0.001c-0.074 0.119-0.149 0.236-0.208 0.339-0.149-0.045-0.312-0.104-0.416-0.149l-1.338-0.491c-0.176-0.059-0.364-0.075-0.548-0.047s-0.358 0.101-0.508 0.211c-0.357 0.268-0.729 0.491-1.145 0.654-0.357 0.149-0.61 0.461-0.669 0.848l-0.238 1.413-0.010 0.080c-0.012 0.098-0.028 0.195-0.049 0.291h-0.862zM21.729 31.97c-0.788 0-1.353 0-1.888-0.401-0.58-0.491-0.684-1.085-0.788-1.755l-0.163-0.907c-0.193-0.104-0.372-0.208-0.565-0.327l-0.843 0.318c-0.607 0.232-1.215 0.464-1.865 0.247-0.687-0.248-0.986-0.744-1.365-1.368l-0.016-0.030-0.253-0.431c-0.402-0.699-0.684-1.219-0.55-1.903 0.103-0.632 0.57-1.017 1.155-1.502l0.702-0.565v-0.595l-0.669-0.535c-0.61-0.491-1.071-0.877-1.19-1.561-0.131-0.625 0.152-1.136 0.47-1.715l0.021-0.040 0.297-0.506 0.015-0.022c0.394-0.657 0.691-1.154 1.34-1.389 0.744-0.238 1.353 0 1.993 0.253l0.773 0.283c0.178-0.119 0.372-0.223 0.565-0.327l0.149-0.848c0.119-0.743 0.223-1.323 0.744-1.784 0.595-0.446 1.16-0.446 1.948-0.446h0.431c0.803 0 1.368 0 1.903 0.431 0.565 0.491 0.669 1.1 0.788 1.814l0.134 0.833c0.193 0.104 0.387 0.208 0.565 0.327l0.788-0.283c0.625-0.253 1.234-0.491 1.918-0.268 0.687 0.248 0.986 0.744 1.365 1.368l0.269 0.459c0.401 0.699 0.684 1.219 0.55 1.903-0.103 0.633-0.57 1.019-1.155 1.502l-0.687 0.565v0.61l0.669 0.535c0.61 0.491 1.071 0.877 1.189 1.561 0.131 0.626-0.152 1.136-0.47 1.716l-0.021 0.039-0.297 0.506-0.015 0.024c-0.394 0.657-0.691 1.154-1.34 1.389-0.744 0.238-1.353 0-1.993-0.253l-0.773-0.282c-0.131 0.088-0.271 0.166-0.405 0.244l-0.146 0.083-0.134 0.833c-0.119 0.714-0.223 1.323-0.758 1.784-0.565 0.446-1.13 0.446-1.933 0.446l-0.030-0.030h-0.431zM21.312 29.74h1.279c0.028-0.122 0.047-0.247 0.059-0.372l0.238-1.413c0.060-0.387 0.312-0.699 0.669-0.848 0.416-0.163 0.788-0.387 1.145-0.654 0.297-0.238 0.699-0.283 1.056-0.164l1.338 0.491c0.104 0.045 0.268 0.104 0.416 0.149 0.059-0.104 0.134-0.223 0.208-0.342l0.253-0.431c0.053-0.083 0.097-0.157 0.134-0.222l0.027-0.045 0.018-0.030-0.039-0.034c-0.084-0.071-0.17-0.139-0.257-0.205l-1.115-0.907c-0.297-0.238-0.446-0.61-0.416-0.996l0.012-0.108c0.025-0.205 0.048-0.385 0.048-0.575 0-0.223-0.030-0.446-0.059-0.654-0.022-0.186 0.003-0.375 0.073-0.55s0.183-0.328 0.329-0.447l1.13-0.922 0.297-0.238c-0.045-0.074-0.089-0.149-0.134-0.238l-0.283-0.461c-0.074-0.134-0.149-0.253-0.223-0.357l-0.195 0.074c-0.077 0.030-0.152 0.059-0.208 0.074l-1.353 0.506c-0.357 0.134-0.773 0.074-1.071-0.164-0.327-0.253-0.699-0.476-1.13-0.654-0.175-0.072-0.329-0.188-0.446-0.336s-0.194-0.325-0.223-0.511l-0.238-1.413-0.024-0.15-0.036-0.221h-1.294l-0.045 0.297-0.268 1.502c-0.060 0.372-0.327 0.684-0.669 0.833-0.416 0.163-0.788 0.387-1.145 0.654-0.15 0.11-0.324 0.182-0.508 0.211s-0.372 0.012-0.548-0.047l-1.338-0.491c-0.104-0.045-0.268-0.104-0.416-0.149-0.059 0.104-0.132 0.223-0.207 0.34v0.001l-0.253 0.431-0.178 0.297 0.037 0.033c0.080 0.067 0.17 0.143 0.26 0.205l1.145 0.922c0.312 0.253 0.476 0.669 0.401 1.071-0.030 0.193-0.045 0.387-0.045 0.595s0 0.401 0.045 0.595c0.074 0.401-0.074 0.803-0.401 1.071l-1.145 0.922-0.141 0.119h-0.001l-0.141 0.119c0.045 0.074 0.089 0.149 0.134 0.238l0.282 0.461c0.074 0.134 0.149 0.253 0.223 0.357 0.064-0.020 0.129-0.044 0.196-0.073 0.076-0.030 0.149-0.060 0.207-0.074l1.353-0.506c0.357-0.134 0.758-0.074 1.056 0.163 0.372 0.283 0.743 0.491 1.145 0.654 0.357 0.149 0.61 0.461 0.669 0.833l0.253 1.413c0.021 0.114 0.037 0.217 0.048 0.308l0.010 0.062zM10.041 11.152c-1.234 0-2.231-0.996-2.231-2.231s0.996-2.231 2.231-2.231c1.234 0 2.23 0.996 2.23 2.231s-0.996 2.23-2.23 2.23zM19.706 23.048c0 1.234 0.996 2.23 2.23 2.23s2.23-0.996 2.23-2.23c0-1.234-0.996-2.23-2.23-2.23s-2.23 0.996-2.23 2.23z"></path>
        </symbol>
        <symbol id="icon-shield" viewBox="0 0 32 32">
            <path d="M29.091 14.545c0 8.073-5.585 15.622-13.091 17.455-7.505-1.833-13.091-9.382-13.091-17.455v-8.727l13.091-5.818 13.091 5.818v8.727zM16 29.091c5.455-1.454 10.182-7.942 10.182-14.225v-7.156l-10.182-4.538-10.182 4.538v7.156c0 6.284 4.727 12.771 10.182 14.225zM13.091 23.273l-5.818-5.818 2.051-2.051 3.767 3.753 9.585-9.585 2.051 2.065z"></path>
        </symbol>
        <symbol id="icon-linkedin" viewBox="0 0 32 32">
            <path d="M11.428 10.286h6.325v3.242h0.090c0.88-1.578 3.034-3.242 6.244-3.242 6.677 0 7.911 4.156 7.911 9.562v11.010h-6.593v-9.76c0-2.328-0.048-5.322-3.43-5.322-3.434 0-3.958 2.535-3.958 5.153v9.929h-6.591v-20.572z"></path>
            <path d="M0 10.286h6.857v20.572h-6.857v-20.572z"></path>
            <path d="M6.857 4.571c0 1.894-1.535 3.429-3.429 3.429s-3.429-1.535-3.429-3.429c0-1.894 1.535-3.429 3.429-3.429s3.429 1.535 3.429 3.429z"></path>
        </symbol>
        <symbol id="icon-whatsapp" viewBox="0 0 32 32">
            <path d="M27.278 4.65c-2.994-3-6.975-4.65-11.219-4.65-8.738 0-15.85 7.112-15.85 15.856 0 2.794 0.731 5.525 2.119 7.925l-2.25 8.219 8.406-2.206c2.319 1.263 4.925 1.931 7.575 1.931h0.006c8.738 0 15.856-7.113 15.856-15.856 0-4.238-1.65-8.219-4.644-11.219zM16.066 29.050c-2.369 0-4.687-0.637-6.712-1.837l-0.481-0.288-4.987 1.306 1.331-4.862-0.313-0.5c-1.325-2.094-2.019-4.519-2.019-7.013 0-7.269 5.913-13.181 13.187-13.181 3.519 0 6.831 1.375 9.319 3.862 2.487 2.494 3.856 5.8 3.856 9.325-0.006 7.275-5.919 13.187-13.181 13.187zM23.291 19.175c-0.394-0.2-2.344-1.156-2.706-1.287s-0.625-0.2-0.894 0.2c-0.263 0.394-1.025 1.287-1.256 1.556-0.231 0.263-0.463 0.3-0.856 0.1s-1.675-0.619-3.187-1.969c-1.175-1.050-1.975-2.35-2.206-2.744s-0.025-0.612 0.175-0.806c0.181-0.175 0.394-0.463 0.594-0.694s0.262-0.394 0.394-0.662c0.131-0.263 0.069-0.494-0.031-0.694s-0.894-2.15-1.219-2.944c-0.319-0.775-0.65-0.669-0.894-0.681-0.231-0.012-0.494-0.012-0.756-0.012s-0.694 0.1-1.056 0.494c-0.363 0.394-1.387 1.356-1.387 3.306s1.419 3.831 1.619 4.1c0.2 0.263 2.794 4.269 6.769 5.981 0.944 0.406 1.681 0.65 2.256 0.837 0.95 0.3 1.813 0.256 2.494 0.156 0.763-0.113 2.344-0.956 2.675-1.881s0.331-1.719 0.231-1.881c-0.094-0.175-0.356-0.275-0.756-0.475z"></path>
        </symbol>
        <symbol id="icon-wechat" viewBox="0 0 32 32">
            <path d="M31.388 17.002c-0.812-1.848-2.344-3.315-4.123-4.218-3.139-1.596-7.041-1.586-10.172 0.040-2.175 1.121-3.991 3.129-4.505 5.572-0.424 1.799-0.044 3.737 0.907 5.303 1.415 2.359 3.972 3.865 6.628 4.348 1.924 0.392 3.915 0.159 5.784-0.381 1.123 0.436 2.123 1.143 3.211 1.668-0.281-0.947-0.581-1.882-0.901-2.814 1.221-0.87 2.328-1.956 2.992-3.319 0.992-1.894 1.052-4.245 0.18-6.199v0zM18.157 4.329c-3.327-1.88-7.469-2.162-11.048-0.864-2.352 0.85-4.48 2.43-5.795 4.579-1.193 1.941-1.64 4.362-1.065 6.583 0.577 2.463 2.281 4.529 4.349 5.908-0.4 1.138-0.78 2.275-1.14 3.421 1.3-0.683 2.6-1.396 3.901-2.090 1.56 0.502 3.22 0.748 4.88 0.693-0.44-1.262-0.54-2.631-0.34-3.951 0.3-1.835 1.3-3.514 2.659-4.758 2.301-2.162 5.561-3.074 8.661-2.853-0.581-2.858-2.581-5.273-5.099-6.667l0.036-0.001zM20.467 17.702c-0.279 0.873-1.541 1.135-2.153 0.471-0.675-0.615-0.412-1.898 0.473-2.173 0.979-0.415 2.109 0.719 1.68 1.702v-0zM26.86 17.825c-0.341 0.785-1.521 0.968-2.101 0.361-0.279-0.256-0.36-0.641-0.459-0.977 0.139-0.613 0.56-1.249 1.24-1.279 0.94-0.131 1.781 1.035 1.3 1.896l0.020-0.001zM17.321 9.185c0.011 1.287-1.7 2.090-2.66 1.217-0.996-0.716-0.713-2.459 0.456-2.819 1.047-0.422 2.284 0.461 2.201 1.586l0.003 0.016zM9.242 9.511c-0.229 1.118-1.721 1.657-2.595 0.908-1.012-0.716-0.728-2.492 0.46-2.853 1.164-0.45 2.487 0.736 2.135 1.945z"></path>
        </symbol>
        <symbol id="icon-telegram" viewBox="0 0 32 32">
            <path d="M16 0c-8.838 0-16 7.162-16 16s7.162 16 16 16c8.837 0 16-7.163 16-16s-7.163-16-16-16zM23.863 10.969l-2.625 12.369c-0.181 0.881-0.713 1.087-1.45 0.681l-4-2.956-1.919 1.869c-0.225 0.219-0.4 0.4-0.8 0.4-0.519 0-0.431-0.194-0.606-0.687l-1.363-4.475-3.956-1.231c-0.856-0.262-0.862-0.85 0.194-1.269l15.413-5.95c0.7-0.319 1.381 0.169 1.113 1.25z"></path>
        </symbol>
        <symbol id="icon-phone" viewBox="0 0 32 32">
            <path d="M32 29.36v1.040c0 0.884-0.716 1.6-1.6 1.6h-3.2c-15.022 0-27.2-12.178-27.2-27.2v-3.2c0-0.884 0.716-1.6 1.6-1.6h6.4c0.884 0 1.6 0.716 1.6 1.6v6.4c0 0.896-0.496 2.096-1.12 2.72l-3.424 3.424c2.432 5.76 7.040 10.368 12.8 12.8l3.392-3.392c0.64-0.64 1.84-1.136 2.72-1.136h6.432c0.877 0.009 1.584 0.722 1.584 1.6v5.36l0.016-0.016z"></path>
        </symbol>
        <symbol id="icon-email" viewBox="0 0 32 32">
            <path d="M28.8 3.556c1.767 0 3.2 1.393 3.2 3.111v18.667c0 1.718-1.433 3.111-3.2 3.111h-25.6c-1.767 0-3.2-1.393-3.2-3.111v-18.667c0-1.711 1.44-3.111 3.2-3.111h25.6zM21.808 17.711l10.192 7.622v-3.111l-8.192-6.067 8.192-6.378v-3.111l-16 12.444-16-12.444v3.111l8.192 6.378-8.192 6.067v3.111l10.192-7.622 5.808 4.511 5.808-4.511z"></path>
        </symbol>
        <symbol id="icon-user" viewBox="0 0 32 32">
            <path d="M8 8c0-4.418 3.582-8 8-8s8 3.582 8 8v3.2c0 4.418-3.582 8-8 8s-8-3.582-8-8v-3.2zM0 26.688c4.576-2.696 10.081-4.288 15.959-4.288 0.015 0 0.029 0 0.044 0h-0.002c5.824 0 11.296 1.552 16 4.288v5.312h-32v-5.312z"></path>
        </symbol>
        <symbol id="icon-check" viewBox="0 0 32 32">
            <path d="M0 16.8l3.2-3.2 8 8 17.6-17.6 3.2 3.2-20.8 20.8-11.2-11.2z"></path>
        </symbol>
        <symbol id="icon-send" viewBox="0 0 32 32">
            <path d="M0 0l32 16-32 16v-32zM0 12.8v6.4l16-3.2-16-3.2z"></path>
        </symbol>
    </defs>
</svg>